<svg width="97" height="97" viewBox="0 0 97 97" fill="none" xmlns="http://www.w3.org/2000/svg">
<g clip-path="url(#clip0_41_1297)">
<mask id="path-1-inside-1_41_1297" fill="white">
<path d="M86.8958 92.9583H10.1042C4.53475 92.9583 0 88.4236 0 82.8542V14.1459C0 8.57644 4.53475 4.04169 10.1042 4.04169H86.8958C92.4652 4.04169 97 8.57644 97 14.1459V82.8542C97 88.4236 92.4652 92.9583 86.8958 92.9583ZM10.1042 8.08335C6.76171 8.08335 4.04167 10.8034 4.04167 14.1459V82.8542C4.04167 86.1966 6.76171 88.9167 10.1042 88.9167H86.8958C90.2383 88.9167 92.9583 86.1966 92.9583 82.8542V14.1459C92.9583 10.8034 90.2383 8.08335 86.8958 8.08335H10.1042Z"/>
</mask>
<path d="M86.8958 92.9583H10.1042C4.53475 92.9583 0 88.4236 0 82.8542V14.1459C0 8.57644 4.53475 4.04169 10.1042 4.04169H86.8958C92.4652 4.04169 97 8.57644 97 14.1459V82.8542C97 88.4236 92.4652 92.9583 86.8958 92.9583ZM10.1042 8.08335C6.76171 8.08335 4.04167 10.8034 4.04167 14.1459V82.8542C4.04167 86.1966 6.76171 88.9167 10.1042 88.9167H86.8958C90.2383 88.9167 92.9583 86.1966 92.9583 82.8542V14.1459C92.9583 10.8034 90.2383 8.08335 86.8958 8.08335H10.1042Z" fill="#1B294C"/>
<path d="M86.8958 87.9583H10.1042V97.9583H86.8958V87.9583ZM10.1042 87.9583C7.29617 87.9583 5 85.6622 5 82.8542H-5C-5 91.185 1.77333 97.9583 10.1042 97.9583V87.9583ZM5 82.8542V14.1459H-5V82.8542H5ZM5 14.1459C5 11.3379 7.29617 9.04169 10.1042 9.04169V-0.958313C1.77333 -0.958313 -5 5.81501 -5 14.1459H5ZM10.1042 9.04169H86.8958V-0.958313H10.1042V9.04169ZM86.8958 9.04169C89.7038 9.04169 92 11.3379 92 14.1459H102C102 5.81501 95.2267 -0.958313 86.8958 -0.958313V9.04169ZM92 14.1459V82.8542H102V14.1459H92ZM92 82.8542C92 85.6622 89.7038 87.9583 86.8958 87.9583V97.9583C95.2267 97.9583 102 91.185 102 82.8542H92ZM10.1042 3.08335C4.00028 3.08335 -0.958333 8.04197 -0.958333 14.1459H9.04167C9.04167 13.5648 9.52313 13.0834 10.1042 13.0834V3.08335ZM-0.958333 14.1459V82.8542H9.04167V14.1459H-0.958333ZM-0.958333 82.8542C-0.958333 88.9581 4.00028 93.9167 10.1042 93.9167V83.9167C9.52313 83.9167 9.04167 83.4352 9.04167 82.8542H-0.958333ZM10.1042 93.9167H86.8958V83.9167H10.1042V93.9167ZM86.8958 93.9167C92.9997 93.9167 97.9583 88.9581 97.9583 82.8542H87.9583C87.9583 83.4352 87.4769 83.9167 86.8958 83.9167V93.9167ZM97.9583 82.8542V14.1459H87.9583V82.8542H97.9583ZM97.9583 14.1459C97.9583 8.04197 92.9997 3.08335 86.8958 3.08335V13.0834C87.4769 13.0834 87.9583 13.5648 87.9583 14.1459H97.9583ZM86.8958 3.08335H10.1042V13.0834H86.8958V3.08335Z" fill="#1B294C" mask="url(#path-1-inside-1_41_1297)"/>
<path d="M94.9792 24.25H2.02083C0.905333 24.25 0 23.3447 0 22.2291C0 21.1136 0.905333 20.2083 2.02083 20.2083H94.9792C96.0947 20.2083 97 21.1136 97 22.2291C97 23.3447 96.0947 24.25 94.9792 24.25Z" fill="#1B294C"/>
<path d="M48.5 68.7083C42.9306 68.7083 38.3958 64.1736 38.3958 58.6042C38.3958 53.0347 42.9306 48.5 48.5 48.5C54.0694 48.5 58.6041 53.0347 58.6041 58.6042C58.6041 64.1736 54.0694 68.7083 48.5 68.7083ZM48.5 52.5417C45.1575 52.5417 42.4375 55.2617 42.4375 58.6042C42.4375 61.9466 45.1575 64.6667 48.5 64.6667C51.8424 64.6667 54.5625 61.9466 54.5625 58.6042C54.5625 55.2617 51.8424 52.5417 48.5 52.5417Z" fill="#1B294C"/>
<path d="M51.7212 84.875H45.2748C43.1893 84.875 41.4594 83.3109 41.2533 81.2335L40.74 76.0965C39.5154 75.5509 38.3473 74.8719 37.244 74.0636L32.5233 76.1935C30.6278 77.0585 28.4008 76.335 27.3621 74.5284L24.1368 68.9509C23.0941 67.1442 23.5872 64.8648 25.2766 63.6482L29.4355 60.6574C29.3587 60.0309 29.3021 59.3317 29.3021 58.6042C29.3021 57.8767 29.3587 57.1775 29.4395 56.5551L25.2806 53.5643C23.5912 52.3477 23.0981 50.0682 24.1409 48.2616L27.3621 42.68C28.4048 40.8775 30.6197 40.154 32.5233 41.0149L37.244 43.1448C38.3473 42.3365 39.5154 41.6575 40.74 41.1119L41.2573 35.9709C41.4635 33.8975 43.1933 32.3334 45.2788 32.3334H51.7253C53.8108 32.3334 55.5406 33.8975 55.7467 35.9749L56.26 41.1119C57.4887 41.6575 58.6567 42.3405 59.756 43.1448L64.4767 41.0149C66.3803 40.158 68.5992 40.8734 69.6379 42.68L72.8591 48.2616C73.9019 50.0682 73.4088 52.3477 71.7194 53.5643L67.5605 56.5551C67.6413 57.1815 67.6979 57.8767 67.6979 58.6042C67.6979 59.3317 67.6413 60.0309 67.5605 60.6533L71.7194 63.6442C73.4088 64.8607 73.9019 67.1402 72.8591 68.9468L69.6379 74.5284C68.5952 76.331 66.3844 77.0544 64.4767 76.1935L59.756 74.0636C58.6527 74.8719 57.4846 75.5509 56.26 76.0965L55.7427 81.2375C55.5365 83.3109 53.8067 84.875 51.7212 84.875ZM37.5269 69.6986C37.9917 69.6986 38.4524 69.8602 38.8243 70.1715C40.1944 71.3193 41.71 72.1963 43.3226 72.7864C44.0501 73.0532 44.5634 73.712 44.6402 74.4839L45.2788 80.8334H51.7253L52.3598 74.4839C52.4366 73.712 52.9499 73.0532 53.6774 72.7864C55.29 72.1963 56.8056 71.3153 58.1758 70.1715C58.7739 69.6743 59.5984 69.5652 60.3017 69.8805L66.1378 72.5156L69.359 66.9341L64.1938 63.2238C63.5633 62.7712 63.2521 61.9952 63.3814 61.2313C63.531 60.3785 63.6522 59.5095 63.6522 58.6123C63.6522 57.715 63.531 56.8461 63.3814 55.9933C63.2481 55.2294 63.5633 54.4575 64.1938 54.0008L69.359 50.2905L66.1378 44.709L60.3017 47.3401C59.5944 47.6634 58.7699 47.5462 58.1717 47.0491C56.8056 45.9012 55.294 45.0242 53.6733 44.4341C52.9458 44.1674 52.4325 43.5086 52.3558 42.7366L51.7212 36.375H45.2748L44.6402 42.7245C44.5634 43.4965 44.0501 44.1553 43.3226 44.422C41.71 45.0121 40.1944 45.8932 38.8243 47.037C38.2301 47.5341 37.4056 47.6513 36.6983 47.328L30.8622 44.6928L27.6369 50.2784L32.8022 53.9886C33.4327 54.4413 33.7439 55.2173 33.6145 55.9812C33.465 56.838 33.3438 57.7029 33.3438 58.6042C33.3438 59.5055 33.465 60.3704 33.6145 61.2232C33.7479 61.9871 33.4327 62.759 32.8022 63.2157L27.6369 66.93L30.8581 72.5116L36.6943 69.8805C36.9651 69.7552 37.244 69.6986 37.5269 69.6986Z" fill="#1B294C"/>
</g>
<defs>
<clipPath id="clip0_41_1297">
<rect width="97" height="97" fill="white"/>
</clipPath>
</defs>
</svg>
