<svg width="115" height="115" viewBox="0 0 115 115" fill="none" xmlns="http://www.w3.org/2000/svg">
<g clip-path="url(#clip0_37_1278)">
<mask id="path-1-inside-1_37_1278" fill="white">
<path d="M63.3266 37.3894H73.6737C74.9142 37.3894 75.9198 36.3838 75.9198 35.1433V24.7789C75.9198 23.5384 74.9142 22.5328 73.6737 22.5328H63.3266C62.0861 22.5328 61.0805 23.5384 61.0805 24.7789V35.1433C61.0805 36.3838 62.0861 37.3894 63.3266 37.3894ZM65.5727 27.0252H71.4276V32.8974H65.5727V27.0252Z"/>
</mask>
<path d="M63.3266 37.3894H73.6737C74.9142 37.3894 75.9198 36.3838 75.9198 35.1433V24.7789C75.9198 23.5384 74.9142 22.5328 73.6737 22.5328H63.3266C62.0861 22.5328 61.0805 23.5384 61.0805 24.7789V35.1433C61.0805 36.3838 62.0861 37.3894 63.3266 37.3894ZM65.5727 27.0252H71.4276V32.8974H65.5727V27.0252Z" fill="#1B294C"/>
<path d="M65.5727 27.0252V22.0252H60.5727V27.0252H65.5727ZM71.4276 27.0252H76.4276V22.0252H71.4276V27.0252ZM71.4276 32.8974V37.8974H76.4276V32.8974H71.4276ZM65.5727 32.8974H60.5727V37.8974H65.5727V32.8974ZM63.3266 42.3894H73.6737V32.3894H63.3266V42.3894ZM73.6737 42.3894C77.6756 42.3894 80.9198 39.1452 80.9198 35.1433H70.9198C70.9198 33.6224 72.1528 32.3894 73.6737 32.3894V42.3894ZM80.9198 35.1433V24.7789H70.9198V35.1433H80.9198ZM80.9198 24.7789C80.9198 20.777 77.6756 17.5328 73.6737 17.5328V27.5328C72.1528 27.5328 70.9198 26.2998 70.9198 24.7789H80.9198ZM73.6737 17.5328H63.3266V27.5328H73.6737V17.5328ZM63.3266 17.5328C59.3247 17.5328 56.0805 20.777 56.0805 24.7789H66.0805C66.0805 26.2998 64.8475 27.5328 63.3266 27.5328V17.5328ZM56.0805 24.7789V35.1433H66.0805V24.7789H56.0805ZM56.0805 35.1433C56.0805 39.1452 59.3247 42.3894 63.3266 42.3894V32.3894C64.8475 32.3894 66.0805 33.6224 66.0805 35.1433H56.0805ZM65.5727 32.0252H71.4276V22.0252H65.5727V32.0252ZM66.4276 27.0252V32.8974H76.4276V27.0252H66.4276ZM71.4276 27.8974H65.5727V37.8974H71.4276V27.8974ZM70.5727 32.8974V27.0252H60.5727V32.8974H70.5727Z" fill="#1B294C" mask="url(#path-1-inside-1_37_1278)"/>
<mask id="path-3-inside-2_37_1278" fill="white">
<path d="M42.948 37.3894H53.2951C54.5356 37.3894 55.5412 36.3838 55.5412 35.1433V24.7789C55.5412 23.5384 54.5356 22.5328 53.2951 22.5328H42.948C41.7075 22.5328 40.7019 23.5384 40.7019 24.7789V35.1433C40.7019 36.3838 41.7075 37.3894 42.948 37.3894ZM45.1941 27.0252H51.049V32.8974H45.1941V27.0252Z"/>
</mask>
<path d="M42.948 37.3894H53.2951C54.5356 37.3894 55.5412 36.3838 55.5412 35.1433V24.7789C55.5412 23.5384 54.5356 22.5328 53.2951 22.5328H42.948C41.7075 22.5328 40.7019 23.5384 40.7019 24.7789V35.1433C40.7019 36.3838 41.7075 37.3894 42.948 37.3894ZM45.1941 27.0252H51.049V32.8974H45.1941V27.0252Z" fill="#1B294C"/>
<path d="M45.1941 27.0252V22.0252H40.1941V27.0252H45.1941ZM51.049 27.0252H56.049V22.0252H51.049V27.0252ZM51.049 32.8974V37.8974H56.049V32.8974H51.049ZM45.1941 32.8974H40.1941V37.8974H45.1941V32.8974ZM42.948 42.3894H53.2951V32.3894H42.948V42.3894ZM53.2951 42.3894C57.297 42.3894 60.5412 39.1452 60.5412 35.1433H50.5412C50.5412 33.6224 51.7742 32.3894 53.2951 32.3894V42.3894ZM60.5412 35.1433V24.7789H50.5412V35.1433H60.5412ZM60.5412 24.7789C60.5412 20.777 57.297 17.5328 53.2951 17.5328V27.5328C51.7742 27.5328 50.5412 26.2998 50.5412 24.7789H60.5412ZM53.2951 17.5328H42.948V27.5328H53.2951V17.5328ZM42.948 17.5328C38.9461 17.5328 35.7019 20.777 35.7019 24.7789H45.7019C45.7019 26.2998 44.4689 27.5328 42.948 27.5328V17.5328ZM35.7019 24.7789V35.1433H45.7019V24.7789H35.7019ZM35.7019 35.1433C35.7019 39.1452 38.9461 42.3894 42.948 42.3894V32.3894C44.4689 32.3894 45.7019 33.6224 45.7019 35.1433H35.7019ZM45.1941 32.0252H51.049V22.0252H45.1941V32.0252ZM46.049 27.0252V32.8974H56.049V27.0252H46.049ZM51.049 27.8974H45.1941V37.8974H51.049V27.8974ZM50.1941 32.8974V27.0252H40.1941V32.8974H50.1941Z" fill="#1B294C" mask="url(#path-3-inside-2_37_1278)"/>
<mask id="path-5-inside-3_37_1278" fill="white">
<path d="M63.3266 60.205H73.6737C74.9142 60.205 75.9198 59.1994 75.9198 57.9589V47.5947C75.9198 46.3542 74.9142 45.3486 73.6737 45.3486H63.3266C62.0861 45.3486 61.0805 46.3542 61.0805 47.5947V57.9589C61.0805 59.1992 62.0861 60.205 63.3266 60.205ZM65.5727 49.8406H71.4276V55.7126H65.5727V49.8406Z"/>
</mask>
<path d="M63.3266 60.205H73.6737C74.9142 60.205 75.9198 59.1994 75.9198 57.9589V47.5947C75.9198 46.3542 74.9142 45.3486 73.6737 45.3486H63.3266C62.0861 45.3486 61.0805 46.3542 61.0805 47.5947V57.9589C61.0805 59.1992 62.0861 60.205 63.3266 60.205ZM65.5727 49.8406H71.4276V55.7126H65.5727V49.8406Z" fill="#1B294C"/>
<path d="M65.5727 49.8406V44.8406H60.5727V49.8406H65.5727ZM71.4276 49.8406H76.4276V44.8406H71.4276V49.8406ZM71.4276 55.7126V60.7126H76.4276V55.7126H71.4276ZM65.5727 55.7126H60.5727V60.7126H65.5727V55.7126ZM63.3266 65.205H73.6737V55.205H63.3266V65.205ZM73.6737 65.205C77.6756 65.205 80.9198 61.9608 80.9198 57.9589H70.9198C70.9198 56.438 72.1528 55.205 73.6737 55.205V65.205ZM80.9198 57.9589V47.5947H70.9198V57.9589H80.9198ZM80.9198 47.5947C80.9198 43.5928 77.6756 40.3486 73.6737 40.3486V50.3486C72.1528 50.3486 70.9198 49.1156 70.9198 47.5947H80.9198ZM73.6737 40.3486H63.3266V50.3486H73.6737V40.3486ZM63.3266 40.3486C59.3247 40.3486 56.0805 43.5928 56.0805 47.5947H66.0805C66.0805 49.1156 64.8475 50.3486 63.3266 50.3486V40.3486ZM56.0805 47.5947V57.9589H66.0805V47.5947H56.0805ZM56.0805 57.9589C56.0805 61.9603 59.3243 65.205 63.3266 65.205V55.205C64.8478 55.205 66.0805 56.4381 66.0805 57.9589H56.0805ZM65.5727 54.8406H71.4276V44.8406H65.5727V54.8406ZM66.4276 49.8406V55.7126H76.4276V49.8406H66.4276ZM71.4276 50.7126H65.5727V60.7126H71.4276V50.7126ZM70.5727 55.7126V49.8406H60.5727V55.7126H70.5727Z" fill="#1B294C" mask="url(#path-5-inside-3_37_1278)"/>
<mask id="path-7-inside-4_37_1278" fill="white">
<path d="M42.948 60.205H53.2951C54.5356 60.205 55.5412 59.1994 55.5412 57.9589V47.5947C55.5412 46.3542 54.5356 45.3486 53.2951 45.3486H42.948C41.7075 45.3486 40.7019 46.3542 40.7019 47.5947V57.9589C40.7019 59.1992 41.7075 60.205 42.948 60.205ZM45.1941 49.8406H51.049V55.7126H45.1941V49.8406Z"/>
</mask>
<path d="M42.948 60.205H53.2951C54.5356 60.205 55.5412 59.1994 55.5412 57.9589V47.5947C55.5412 46.3542 54.5356 45.3486 53.2951 45.3486H42.948C41.7075 45.3486 40.7019 46.3542 40.7019 47.5947V57.9589C40.7019 59.1992 41.7075 60.205 42.948 60.205ZM45.1941 49.8406H51.049V55.7126H45.1941V49.8406Z" fill="#1B294C"/>
<path d="M45.1941 49.8406V44.8406H40.1941V49.8406H45.1941ZM51.049 49.8406H56.049V44.8406H51.049V49.8406ZM51.049 55.7126V60.7126H56.049V55.7126H51.049ZM45.1941 55.7126H40.1941V60.7126H45.1941V55.7126ZM42.948 65.205H53.2951V55.205H42.948V65.205ZM53.2951 65.205C57.297 65.205 60.5412 61.9608 60.5412 57.9589H50.5412C50.5412 56.438 51.7742 55.205 53.2951 55.205V65.205ZM60.5412 57.9589V47.5947H50.5412V57.9589H60.5412ZM60.5412 47.5947C60.5412 43.5928 57.297 40.3486 53.2951 40.3486V50.3486C51.7742 50.3486 50.5412 49.1156 50.5412 47.5947H60.5412ZM53.2951 40.3486H42.948V50.3486H53.2951V40.3486ZM42.948 40.3486C38.9461 40.3486 35.7019 43.5928 35.7019 47.5947H45.7019C45.7019 49.1156 44.4689 50.3486 42.948 50.3486V40.3486ZM35.7019 47.5947V57.9589H45.7019V47.5947H35.7019ZM35.7019 57.9589C35.7019 61.9603 38.9457 65.205 42.948 65.205V55.205C44.4692 55.205 45.7019 56.4381 45.7019 57.9589H35.7019ZM45.1941 54.8406H51.049V44.8406H45.1941V54.8406ZM46.049 49.8406V55.7126H56.049V49.8406H46.049ZM51.049 50.7126H45.1941V60.7126H51.049V50.7126ZM50.1941 55.7126V49.8406H40.1941V55.7126H50.1941Z" fill="#1B294C" mask="url(#path-7-inside-4_37_1278)"/>
<mask id="path-9-inside-5_37_1278" fill="white">
<path d="M63.3266 83.0204H73.6737C74.9142 83.0204 75.9198 82.0148 75.9198 80.7743V70.4099C75.9198 69.1694 74.9142 68.1638 73.6737 68.1638H63.3266C62.0861 68.1638 61.0805 69.1694 61.0805 70.4099V80.7743C61.0805 82.0148 62.0861 83.0204 63.3266 83.0204ZM65.5727 72.6562H71.4276V78.5284H65.5727V72.6562Z"/>
</mask>
<path d="M63.3266 83.0204H73.6737C74.9142 83.0204 75.9198 82.0148 75.9198 80.7743V70.4099C75.9198 69.1694 74.9142 68.1638 73.6737 68.1638H63.3266C62.0861 68.1638 61.0805 69.1694 61.0805 70.4099V80.7743C61.0805 82.0148 62.0861 83.0204 63.3266 83.0204ZM65.5727 72.6562H71.4276V78.5284H65.5727V72.6562Z" fill="#1B294C"/>
<path d="M65.5727 72.6562V67.6562H60.5727V72.6562H65.5727ZM71.4276 72.6562H76.4276V67.6562H71.4276V72.6562ZM71.4276 78.5284V83.5284H76.4276V78.5284H71.4276ZM65.5727 78.5284H60.5727V83.5284H65.5727V78.5284ZM63.3266 88.0204H73.6737V78.0204H63.3266V88.0204ZM73.6737 88.0204C77.6756 88.0204 80.9198 84.7762 80.9198 80.7743H70.9198C70.9198 79.2534 72.1528 78.0204 73.6737 78.0204V88.0204ZM80.9198 80.7743V70.4099H70.9198V80.7743H80.9198ZM80.9198 70.4099C80.9198 66.408 77.6756 63.1638 73.6737 63.1638V73.1638C72.1528 73.1638 70.9198 71.9308 70.9198 70.4099H80.9198ZM73.6737 63.1638H63.3266V73.1638H73.6737V63.1638ZM63.3266 63.1638C59.3247 63.1638 56.0805 66.408 56.0805 70.4099H66.0805C66.0805 71.9308 64.8475 73.1638 63.3266 73.1638V63.1638ZM56.0805 70.4099V80.7743H66.0805V70.4099H56.0805ZM56.0805 80.7743C56.0805 84.7762 59.3247 88.0204 63.3266 88.0204V78.0204C64.8475 78.0204 66.0805 79.2534 66.0805 80.7743H56.0805ZM65.5727 77.6562H71.4276V67.6562H65.5727V77.6562ZM66.4276 72.6562V78.5284H76.4276V72.6562H66.4276ZM71.4276 73.5284H65.5727V83.5284H71.4276V73.5284ZM70.5727 78.5284V72.6562H60.5727V78.5284H70.5727Z" fill="#1B294C" mask="url(#path-9-inside-5_37_1278)"/>
<mask id="path-11-inside-6_37_1278" fill="white">
<path d="M53.2951 83.0204C54.5356 83.0204 55.5412 82.0148 55.5412 80.7743V70.4099C55.5412 69.1694 54.5356 68.1638 53.2951 68.1638H42.948C41.7075 68.1638 40.7019 69.1694 40.7019 70.4099V80.7743C40.7019 82.0148 41.7075 83.0204 42.948 83.0204H53.2951ZM45.1941 72.6562H51.049V78.5284H45.1941V72.6562Z"/>
</mask>
<path d="M53.2951 83.0204C54.5356 83.0204 55.5412 82.0148 55.5412 80.7743V70.4099C55.5412 69.1694 54.5356 68.1638 53.2951 68.1638H42.948C41.7075 68.1638 40.7019 69.1694 40.7019 70.4099V80.7743C40.7019 82.0148 41.7075 83.0204 42.948 83.0204H53.2951ZM45.1941 72.6562H51.049V78.5284H45.1941V72.6562Z" fill="#1B294C"/>
<path d="M45.1941 72.6562V67.6562H40.1941V72.6562H45.1941ZM51.049 72.6562H56.049V67.6562H51.049V72.6562ZM51.049 78.5284V83.5284H56.049V78.5284H51.049ZM45.1941 78.5284H40.1941V83.5284H45.1941V78.5284ZM53.2951 88.0204C57.297 88.0204 60.5412 84.7762 60.5412 80.7743H50.5412C50.5412 79.2534 51.7742 78.0204 53.2951 78.0204V88.0204ZM60.5412 80.7743V70.4099H50.5412V80.7743H60.5412ZM60.5412 70.4099C60.5412 66.408 57.297 63.1638 53.2951 63.1638V73.1638C51.7742 73.1638 50.5412 71.9308 50.5412 70.4099H60.5412ZM53.2951 63.1638H42.948V73.1638H53.2951V63.1638ZM42.948 63.1638C38.9461 63.1638 35.7019 66.408 35.7019 70.4099H45.7019C45.7019 71.9308 44.4689 73.1638 42.948 73.1638V63.1638ZM35.7019 70.4099V80.7743H45.7019V70.4099H35.7019ZM35.7019 80.7743C35.7019 84.7762 38.9461 88.0204 42.948 88.0204V78.0204C44.4689 78.0204 45.7019 79.2534 45.7019 80.7743H35.7019ZM42.948 88.0204H53.2951V78.0204H42.948V88.0204ZM45.1941 77.6562H51.049V67.6562H45.1941V77.6562ZM46.049 72.6562V78.5284H56.049V72.6562H46.049ZM51.049 73.5284H45.1941V83.5284H51.049V73.5284ZM50.1941 78.5284V72.6562H40.1941V78.5284H50.1941Z" fill="#1B294C" mask="url(#path-11-inside-6_37_1278)"/>
<mask id="path-13-inside-7_37_1278" fill="white">
<path d="M104.208 110.508H102.119V42.6641C102.119 41.4236 101.114 40.418 99.873 40.418H85.2393V12.5685C85.2393 11.3279 84.2337 10.3224 82.9932 10.3224H78.2076V2.24609C78.2076 1.00558 77.2021 0 75.9615 0H40.6601C39.4196 0 38.414 1.00558 38.414 2.24609V10.3224H33.6287C32.3882 10.3224 31.3826 11.3279 31.3826 12.5685V55.797H19.0588C17.8183 55.797 16.8127 56.8026 16.8127 58.0431V110.508H10.7925C9.55196 110.508 8.54639 111.513 8.54639 112.754C8.54639 113.994 9.55196 115 10.7925 115H104.208C105.448 115 106.454 113.994 106.454 112.754C106.454 111.513 105.448 110.508 104.208 110.508ZM42.9062 4.49219H73.7152V10.3224H42.9062V4.49219ZM21.3049 60.2892H31.3826V110.508H21.3049V60.2892ZM35.8748 14.8146H80.7471V110.508H69.566V95.6885C69.566 94.448 68.5604 93.4424 67.3199 93.4424H49.3018C48.0612 93.4424 47.0557 94.448 47.0557 95.6885V110.508H35.8748V14.8146ZM51.5481 110.508V97.9346H65.0741V110.508H51.5481ZM85.2393 110.508V44.9102H97.6269V110.508H85.2393Z"/>
</mask>
<path d="M104.208 110.508H102.119V42.6641C102.119 41.4236 101.114 40.418 99.873 40.418H85.2393V12.5685C85.2393 11.3279 84.2337 10.3224 82.9932 10.3224H78.2076V2.24609C78.2076 1.00558 77.2021 0 75.9615 0H40.6601C39.4196 0 38.414 1.00558 38.414 2.24609V10.3224H33.6287C32.3882 10.3224 31.3826 11.3279 31.3826 12.5685V55.797H19.0588C17.8183 55.797 16.8127 56.8026 16.8127 58.0431V110.508H10.7925C9.55196 110.508 8.54639 111.513 8.54639 112.754C8.54639 113.994 9.55196 115 10.7925 115H104.208C105.448 115 106.454 113.994 106.454 112.754C106.454 111.513 105.448 110.508 104.208 110.508ZM42.9062 4.49219H73.7152V10.3224H42.9062V4.49219ZM21.3049 60.2892H31.3826V110.508H21.3049V60.2892ZM35.8748 14.8146H80.7471V110.508H69.566V95.6885C69.566 94.448 68.5604 93.4424 67.3199 93.4424H49.3018C48.0612 93.4424 47.0557 94.448 47.0557 95.6885V110.508H35.8748V14.8146ZM51.5481 110.508V97.9346H65.0741V110.508H51.5481ZM85.2393 110.508V44.9102H97.6269V110.508H85.2393Z" fill="#1B294C"/>
<path d="M102.119 110.508H92.1191V120.508H102.119V110.508ZM85.2393 40.418H75.2393V50.418H85.2393V40.418ZM78.2076 10.3224H68.2076V20.3224H78.2076V10.3224ZM38.414 10.3224V20.3224H48.414V10.3224H38.414ZM31.3826 55.797V65.797H41.3826V55.797H31.3826ZM16.8127 110.508V120.508H26.8127V110.508H16.8127ZM42.9062 4.49219V-5.50781H32.9062V4.49219H42.9062ZM73.7152 4.49219H83.7152V-5.50781H73.7152V4.49219ZM73.7152 10.3224V20.3224H83.7152V10.3224H73.7152ZM42.9062 10.3224H32.9062V20.3224H42.9062V10.3224ZM21.3049 60.2892V50.2892H11.3049V60.2892H21.3049ZM31.3826 60.2892H41.3826V50.2892H31.3826V60.2892ZM31.3826 110.508V120.508H41.3826V110.508H31.3826ZM21.3049 110.508H11.3049V120.508H21.3049V110.508ZM35.8748 14.8146V4.81456H25.8748V14.8146H35.8748ZM80.7471 14.8146H90.7471V4.81456H80.7471V14.8146ZM80.7471 110.508V120.508H90.7471V110.508H80.7471ZM69.566 110.508H59.566V120.508H69.566V110.508ZM47.0557 110.508V120.508H57.0557V110.508H47.0557ZM35.8748 110.508H25.8748V120.508H35.8748V110.508ZM51.5481 110.508H41.5481V120.508H51.5481V110.508ZM51.5481 97.9346V87.9346H41.5481V97.9346H51.5481ZM65.0741 97.9346H75.0741V87.9346H65.0741V97.9346ZM65.0741 110.508V120.508H75.0741V110.508H65.0741ZM85.2393 110.508H75.2393V120.508H85.2393V110.508ZM85.2393 44.9102V34.9102H75.2393V44.9102H85.2393ZM97.6269 44.9102H107.627V34.9102H97.6269V44.9102ZM97.6269 110.508V120.508H107.627V110.508H97.6269ZM104.208 100.508H102.119V120.508H104.208V100.508ZM112.119 110.508V42.6641H92.1191V110.508H112.119ZM112.119 42.6641C112.119 35.9007 106.636 30.418 99.873 30.418V50.418C95.5907 50.418 92.1191 46.9464 92.1191 42.6641H112.119ZM99.873 30.418H85.2393V50.418H99.873V30.418ZM95.2393 40.418V12.5685H75.2393V40.418H95.2393ZM95.2393 12.5685C95.2393 5.80508 89.7565 0.322373 82.9932 0.322373V20.3224C78.7109 20.3224 75.2393 16.8508 75.2393 12.5685H95.2393ZM82.9932 0.322373H78.2076V20.3224H82.9932V0.322373ZM88.2076 10.3224V2.24609H68.2076V10.3224H88.2076ZM88.2076 2.24609C88.2076 -4.51727 82.7249 -10 75.9615 -10V10C71.6792 10 68.2076 6.52842 68.2076 2.24609H88.2076ZM75.9615 -10H40.6601V10H75.9615V-10ZM40.6601 -10C33.8968 -10 28.414 -4.51727 28.414 2.24609H48.414C48.414 6.52842 44.9425 10 40.6601 10V-10ZM28.414 2.24609V10.3224H48.414V2.24609H28.414ZM38.414 0.322373H33.6287V20.3224H38.414V0.322373ZM33.6287 0.322373C26.8654 0.322373 21.3826 5.8051 21.3826 12.5685H41.3826C41.3826 16.8508 37.9111 20.3224 33.6287 20.3224V0.322373ZM21.3826 12.5685V55.797H41.3826V12.5685H21.3826ZM31.3826 45.797H19.0588V65.797H31.3826V45.797ZM19.0588 45.797C12.2954 45.797 6.81269 51.2797 6.81269 58.0431H26.8127C26.8127 62.3254 23.3411 65.797 19.0588 65.797V45.797ZM6.81269 58.0431V110.508H26.8127V58.0431H6.81269ZM16.8127 100.508H10.7925V120.508H16.8127V100.508ZM10.7925 100.508C4.02912 100.508 -1.45361 105.991 -1.45361 112.754H18.5464C18.5464 117.036 15.0748 120.508 10.7925 120.508V100.508ZM-1.45361 112.754C-1.45361 119.517 4.02912 125 10.7925 125V105C15.0748 105 18.5464 108.472 18.5464 112.754H-1.45361ZM10.7925 125H104.208V105H10.7925V125ZM104.208 125C110.971 125 116.454 119.517 116.454 112.754H96.4536C96.4536 108.472 99.9252 105 104.208 105V125ZM116.454 112.754C116.454 105.991 110.971 100.508 104.208 100.508V120.508C99.9252 120.508 96.4536 117.036 96.4536 112.754H116.454ZM42.9062 14.4922H73.7152V-5.50781H42.9062V14.4922ZM63.7152 4.49219V10.3224H83.7152V4.49219H63.7152ZM73.7152 0.322373H42.9062V20.3224H73.7152V0.322373ZM52.9062 10.3224V4.49219H32.9062V10.3224H52.9062ZM21.3049 70.2892H31.3826V50.2892H21.3049V70.2892ZM21.3826 60.2892V110.508H41.3826V60.2892H21.3826ZM31.3826 100.508H21.3049V120.508H31.3826V100.508ZM31.3049 110.508V60.2892H11.3049V110.508H31.3049ZM35.8748 24.8146H80.7471V4.81456H35.8748V24.8146ZM70.7471 14.8146V110.508H90.7471V14.8146H70.7471ZM80.7471 100.508H69.566V120.508H80.7471V100.508ZM79.566 110.508V95.6885H59.566V110.508H79.566ZM79.566 95.6885C79.566 88.9252 74.0833 83.4424 67.3199 83.4424V103.442C63.0376 103.442 59.566 99.9709 59.566 95.6885H79.566ZM67.3199 83.4424H49.3018V103.442H67.3199V83.4424ZM49.3018 83.4424C42.5384 83.4424 37.0557 88.9252 37.0557 95.6885H57.0557C57.0557 99.9709 53.5841 103.442 49.3018 103.442V83.4424ZM37.0557 95.6885V110.508H57.0557V95.6885H37.0557ZM47.0557 100.508H35.8748V120.508H47.0557V100.508ZM45.8748 110.508V14.8146H25.8748V110.508H45.8748ZM61.5481 110.508V97.9346H41.5481V110.508H61.5481ZM51.5481 107.935H65.0741V87.9346H51.5481V107.935ZM55.0741 97.9346V110.508H75.0741V97.9346H55.0741ZM65.0741 100.508H51.5481V120.508H65.0741V100.508ZM95.2393 110.508V44.9102H75.2393V110.508H95.2393ZM85.2393 54.9102H97.6269V34.9102H85.2393V54.9102ZM87.6269 44.9102V110.508H107.627V44.9102H87.6269ZM97.6269 100.508H85.2393V120.508H97.6269V100.508Z" fill="#1B294C" mask="url(#path-13-inside-7_37_1278)"/>
</g>
<defs>
<clipPath id="clip0_37_1278">
<rect width="115" height="115" fill="white"/>
</clipPath>
</defs>
</svg>
