<svg width="563" height="369" viewBox="0 0 563 369" fill="none" xmlns="http://www.w3.org/2000/svg">
<path d="M94.8781 360.668C94.1174 360.668 93.368 360.484 92.6937 360.131C92.0193 359.779 91.4401 359.269 91.0052 358.644C90.5703 358.02 90.2927 357.299 90.196 356.544C90.0993 355.789 90.1864 355.022 90.4498 354.308L102.028 322.913H120.442L98.9156 358.42C98.4912 359.109 97.897 359.678 97.19 360.072C96.4831 360.465 95.687 360.67 94.8781 360.668Z" fill="black"/>
<path d="M258.787 360.668C259.547 360.668 260.297 360.484 260.971 360.131C261.645 359.779 262.225 359.269 262.66 358.644C263.094 358.02 263.372 357.299 263.469 356.544C263.565 355.789 263.478 355.022 263.215 354.308L251.637 322.913H233.223L254.749 358.42C255.174 359.109 255.768 359.678 256.475 360.072C257.182 360.465 257.978 360.67 258.787 360.668Z" fill="black"/>
<path d="M276.985 229.628H76.68V334.352H276.985V229.628Z" fill="#1B294C"/>
<path d="M263.511 243.112H90.1534V320.868H263.511V243.112Z" fill="white"/>
<path d="M263.736 282.111H90.1534" stroke="#1B294C" stroke-width="3" stroke-miterlimit="10"/>
<path d="M176.832 268.403C179.561 268.403 181.773 266.189 181.773 263.459C181.773 260.728 179.561 258.515 176.832 258.515C174.104 258.515 171.892 260.728 171.892 263.459C171.892 266.189 174.104 268.403 176.832 268.403Z" fill="#1B294C"/>
<path d="M176.832 306.157C179.561 306.157 181.773 303.944 181.773 301.213C181.773 298.483 179.561 296.269 176.832 296.269C174.104 296.269 171.892 298.483 171.892 301.213C171.892 303.944 174.104 306.157 176.832 306.157Z" fill="#1B294C"/>
<path d="M138.882 185.253C142.479 185.253 145.394 182.335 145.394 178.736C145.394 175.137 142.479 172.219 138.882 172.219C135.286 172.219 132.37 175.137 132.37 178.736C132.37 182.335 135.286 185.253 138.882 185.253Z" fill="#1B294C"/>
<path d="M172.566 185.253C176.162 185.253 179.078 182.335 179.078 178.736C179.078 175.137 176.162 172.219 172.566 172.219C168.969 172.219 166.054 175.137 166.054 178.736C166.054 182.335 168.969 185.253 172.566 185.253Z" fill="#1B294C"/>
<path d="M155.724 172.219C154.85 172.219 153.987 172.417 153.2 172.799C152.807 171.495 152.017 170.346 150.94 169.514C149.863 168.682 148.552 168.208 147.193 168.158C145.833 168.107 144.491 168.484 143.356 169.234C142.22 169.985 141.348 171.072 140.86 172.343C140.372 173.615 140.294 175.007 140.636 176.325C140.978 177.643 141.723 178.821 142.767 179.695C143.811 180.568 145.102 181.093 146.459 181.196C147.816 181.299 149.171 180.974 150.335 180.269C150.735 181.25 151.394 182.104 152.242 182.74C153.09 183.375 154.095 183.767 155.149 183.875C156.203 183.982 157.266 183.8 158.225 183.349C159.183 182.898 160.001 182.195 160.591 181.314C161.181 180.433 161.52 179.409 161.572 178.35C161.624 177.291 161.388 176.238 160.888 175.303C160.387 174.369 159.643 173.588 158.733 173.045C157.823 172.501 156.783 172.216 155.724 172.219Z" fill="#1B294C"/>
<path d="M167.37 172.237C166.922 171.144 166.186 170.194 165.241 169.487C164.295 168.78 163.176 168.344 162.002 168.225C160.828 168.106 159.643 168.308 158.575 168.81C157.507 169.312 156.596 170.095 155.938 171.076C155.28 172.056 154.901 173.197 154.84 174.376C154.78 175.556 155.041 176.729 155.596 177.772C156.15 178.814 156.978 179.686 157.989 180.294C159 180.903 160.158 181.225 161.338 181.226C161.564 181.225 161.791 181.213 162.016 181.19C162.547 182.036 163.286 182.732 164.162 183.211C165.038 183.69 166.022 183.936 167.021 183.926C168.019 183.916 168.998 183.65 169.864 183.153C170.73 182.656 171.455 181.945 171.968 181.088C172.482 180.231 172.767 179.257 172.797 178.258C172.827 177.259 172.6 176.27 172.139 175.384C171.678 174.497 170.997 173.745 170.162 173.197C169.327 172.649 168.365 172.325 167.37 172.255V172.237Z" fill="#1B294C"/>
<path d="M153.478 174.916C156.207 174.916 158.419 172.702 158.419 169.972C158.419 167.241 156.207 165.027 153.478 165.027C150.75 165.027 148.538 167.241 148.538 169.972C148.538 172.702 150.75 174.916 153.478 174.916Z" fill="#1B294C"/>
<path d="M169.871 163.23C171.731 163.23 173.239 161.72 173.239 159.859C173.239 157.997 171.731 156.488 169.871 156.488C168.011 156.488 166.503 157.997 166.503 159.859C166.503 161.72 168.011 163.23 169.871 163.23Z" fill="#1B294C"/>
<path d="M138.328 229.249L129.521 179.011H136.727L143.697 229.249H138.328Z" fill="white" stroke="black"/>
<path d="M181.775 179.011L172.968 229.249H167.598L174.573 179.011H181.775Z" fill="white" stroke="black"/>
<path d="M173.563 179.011L166.588 229.249H160.084L163.378 179.011H173.563Z" fill="white" stroke="black"/>
<path d="M144.707 229.249L137.736 179.011H147.922L151.211 229.249H144.707Z" fill="white" stroke="black"/>
<path d="M152.213 229.249L148.924 179.011H162.376L159.082 229.249H152.213Z" fill="white" stroke="black"/>
<path d="M235.617 196.344H318.151V359.172H200.788V231.197C200.788 231.197 200.788 231.197 200.788 231.197C200.789 221.952 204.459 213.088 210.991 206.552C217.523 200.016 226.381 196.344 235.617 196.344Z" fill="white" stroke="black" stroke-width="3"/>
<path d="M328.583 106.426H447.253C456.489 106.427 465.346 110.1 471.877 116.636C478.408 123.173 482.077 132.038 482.077 141.283V359.168H293.755V141.283C293.755 132.038 297.424 123.172 303.956 116.635C310.488 110.098 319.347 106.426 328.583 106.426Z" fill="white" stroke="black" stroke-width="3"/>
<path d="M285.918 239.125H447.253C456.886 239.126 466.125 242.957 472.937 249.774C479.748 256.591 483.576 265.836 483.577 275.477V360.667H249.589V275.477C249.59 265.836 253.418 256.589 260.231 249.772C267.044 242.955 276.283 239.125 285.918 239.125Z" fill="white"/>
<path d="M362.541 279.482H264.571" stroke="black" stroke-width="3" stroke-miterlimit="10"/>
<path d="M249.589 275.477V360.667" stroke="black" stroke-width="4" stroke-miterlimit="10"/>
<path d="M483.577 194.31H407.614" stroke="black" stroke-width="4" stroke-miterlimit="10"/>
<path d="M277.883 0H77.5782V135.736H277.883V0Z" fill="#1B294C"/>
<path d="M264.41 13.4838H91.0516V122.253H264.41V13.4838Z" fill="white"/>
<path d="M216.956 81.0102C218.501 81.1586 220.042 81.3204 221.582 81.4867L224.986 73.0863L228.215 82.2642C229.877 82.471 231.534 82.6882 233.187 82.9159L227.519 66.8209L233.187 52.8112H228.386L228.337 52.8787L225.274 60.4475L222.579 52.8068H217.845L222.741 66.704L216.956 81.0102Z" fill="#3EC1F3"/>
<path d="M213.368 80.6822V52.8158H208.63V80.3046C210.21 80.4245 211.79 80.5548 213.368 80.6957" fill="#3EC1F3"/>
<path d="M177.771 79.1225C179.05 79.1225 180.328 79.13 181.606 79.145V68.9019H187.297V64.5421H181.606V57.1755H188.159V52.8113H176.832V79.127H177.758" fill="#3EC1F3"/>
<path d="M163.058 79.4057C164.639 79.3518 166.202 79.3023 167.801 79.2664V57.1755H172.229V52.8113H158.63V57.1755H163.058V79.4057Z" fill="#3EC1F3"/>
<path d="M126.819 82.3272V65.7242L132.428 81.653C134.153 81.4612 135.882 81.2785 137.616 81.1047V52.7888H133.071V70.0121L127.012 52.8113H122.274V82.925H122.301C123.801 82.7182 125.31 82.5205 126.819 82.3272Z" fill="#3EC1F3"/>
<path d="M154.062 57.1755V52.8113H142.745V80.6327C146.499 80.3091 150.269 80.0364 154.053 79.8147V75.4505C151.865 75.5763 149.682 75.7262 147.505 75.8999V68.9064H153.195V64.5421H147.505V57.1755H154.062Z" fill="#3EC1F3"/>
<path d="M197.554 75.2437V52.8113H192.794V79.4057C196.581 79.5465 200.352 79.7383 204.107 79.981V75.6168C201.927 75.473 199.743 75.3501 197.554 75.2482" fill="#3EC1F3"/>
<path d="M337.615 173.118C337.615 173.118 295.398 182.556 273.841 194.692C251.673 207.169 249.589 224.679 235.752 266.735C229.68 285.163 226.63 298.395 223.365 307.456L261.041 325.259C262.838 321.924 264.436 318.643 265.757 315.596C265.757 315.596 283.03 314.827 284.678 291.694C285.909 274.412 286.501 261.62 292.529 248.712L395.51 172.92L337.615 173.118Z" fill="#21305F"/>
<path d="M207.911 323.632C207.722 323.664 207.534 323.7 207.341 323.726C193.997 325.754 188.428 328.351 186.232 334.406L241.922 360.384C242.558 360.681 243.277 360.748 243.956 360.572C244.636 360.397 245.233 359.99 245.646 359.422C245.881 359.099 246.05 358.733 246.143 358.344C246.236 357.955 246.25 357.551 246.186 357.156C246.121 356.762 245.979 356.384 245.768 356.044C245.556 355.705 245.28 355.411 244.954 355.18L208.27 338.518C209.136 333.581 209.014 328.521 207.911 323.632Z" fill="black"/>
<path d="M261.041 325.259L223.365 307.456C221.438 312.805 219.435 316.706 216.691 319.38C214.41 321.628 211.607 322.976 207.911 323.632C209.014 328.522 209.136 333.581 208.27 338.518L244.972 355.18C244.83 355.078 244.68 354.99 244.523 354.914L243.175 354.272C245.358 351.125 248.785 345.993 252.45 340.06C255.36 335.408 258.373 330.275 261.041 325.259Z" fill="white"/>
<path d="M265.447 316.234L226.235 297.842" stroke="black" stroke-width="3" stroke-linecap="round" stroke-linejoin="round"/>
<path d="M416.884 191.28L415.312 173.958H384.323C384.323 173.958 332.226 186.435 310.08 197.065C288.037 207.636 290.683 232.19 294.837 275.172C296.957 297.083 299.602 312.131 299.463 322.787H340.332C340.557 319.329 340.706 315.681 340.781 311.843C340.781 311.843 356.725 304.287 348.416 279.792C342.852 263.387 338.046 252.523 338.046 238.276H373.993C379.977 238.276 385.896 237.029 391.371 234.613C396.847 232.197 401.759 228.666 405.795 224.244C409.83 219.822 412.9 214.607 414.81 208.931C416.719 203.256 417.425 197.244 416.884 191.28Z" fill="#21305F"/>
<path d="M289.757 342.788C279.374 349.853 275.709 354.474 276.284 360.654L337.772 360.573C338.431 360.545 339.053 360.264 339.51 359.788C339.966 359.312 340.221 358.678 340.221 358.018C340.221 357.358 339.966 356.724 339.51 356.248C339.053 355.772 338.431 355.49 337.772 355.463H296.746C296.746 355.463 294.5 347.876 289.757 342.788Z" fill="black"/>
<path d="M299.463 322.787C299.387 328.855 298.407 333.502 295.91 337.17C294.564 339.114 292.849 340.774 290.862 342.055L289.758 342.788C294.505 347.862 296.746 355.463 296.746 355.463H335.585C337.06 349.435 338.187 343.327 338.962 337.17C339.519 332.873 340.004 328.059 340.346 322.787H299.463Z" fill="white"/>
<path d="M338.513 186.152C328.588 189.325 316.875 193.208 309.321 196.939C292.07 205.447 289.87 222.037 291.743 249.66" stroke="black" stroke-width="3" stroke-linecap="round" stroke-linejoin="round"/>
<path d="M337.615 239.341H326.473" stroke="black" stroke-width="4" stroke-linecap="round" stroke-linejoin="round"/>
<path d="M340.759 312.603H298.991" stroke="black" stroke-width="3" stroke-miterlimit="10" stroke-linecap="round"/>
<path d="M399.543 196.344H482.077V359.172H364.715V231.197C364.715 231.197 364.715 231.197 364.715 231.197C364.716 221.952 368.386 213.088 374.918 206.552C381.449 200.016 390.307 196.344 399.543 196.344Z" fill="white" stroke="black" stroke-width="3"/>
<path d="M362.316 238.294V360.133" stroke="#060606" stroke-width="3" stroke-miterlimit="10"/>
<path d="M46.3648 295.37C36.0352 295.37 27.6098 289.172 27.2909 281.437V360.542H65.4656V281.437C65.1198 289.172 56.7079 295.37 46.3648 295.37Z" fill="#1B294C"/>
<path d="M28.0006 342.64C40.5308 341.291 55.4549 332.527 52.6524 311.775C50.4069 295.145 34.0142 299.865 43.4456 315.596C48.9877 324.841 58.1002 331.138 64.6707 334.756" stroke="white" stroke-width="4" stroke-miterlimit="10" stroke-linecap="round"/>
<path d="M27.8883 323.942C35.357 329.057 48.5879 340.806 53.6315 359.742" stroke="white" stroke-width="4" stroke-miterlimit="10" stroke-linecap="round"/>
<path d="M27.8434 349.247C32.7432 350.699 39.0263 353.827 43.7555 359.796" stroke="#F4F4F4" stroke-width="4" stroke-miterlimit="10" stroke-linecap="round"/>
<path d="M41.5234 285.554C38.3439 291.097 33.6029 295.579 27.8928 298.44" stroke="white" stroke-width="4" stroke-miterlimit="10" stroke-linecap="round"/>
<path d="M46.3649 295.37C56.6945 295.37 65.1199 289.172 65.4387 281.437H27.2775C27.6099 289.172 36.0218 295.37 46.3649 295.37Z" fill="#30242A"/>
<path d="M35.5861 211.996L45.9157 289.752" stroke="#30242A" stroke-width="4" stroke-miterlimit="10" stroke-linecap="round"/>
<path d="M32.2806 243.332L44.3617 289.1" stroke="#30242A" stroke-width="4" stroke-miterlimit="10" stroke-linecap="round"/>
<path d="M69.7571 261.593C78.3598 257.912 84.5099 253 83.4938 250.621C82.4777 248.243 74.6802 249.299 66.0775 252.98C57.4749 256.661 51.3247 261.573 52.3408 263.952C53.3569 266.33 61.1545 265.274 69.7571 261.593Z" fill="#30242A"/>
<path d="M39.4827 271.397C40.3587 269.072 32.5854 263.986 22.1206 260.037C11.6557 256.088 2.46216 254.772 1.58615 257.097C0.710145 259.422 8.48343 264.508 18.9482 268.457C29.4131 272.406 38.6066 273.722 39.4827 271.397Z" fill="#30242A"/>
<path d="M53.7691 246.62C59.8256 242.054 63.7977 237.107 62.6411 235.57C61.4845 234.034 55.6371 236.489 49.5807 241.055C43.5242 245.621 39.552 250.568 40.7086 252.104C41.8652 253.641 47.7126 251.185 53.7691 246.62Z" fill="#30242A"/>
<path d="M59.3891 221.434L47.7122 293.348" stroke="#30242A" stroke-width="4" stroke-miterlimit="10" stroke-linecap="round"/>
<path d="M40.1446 228.886C39.0657 227.096 37.5723 225.592 35.7906 224.501C34.0089 223.41 31.991 222.763 29.9072 222.616C27.8235 222.47 25.735 222.826 23.818 223.657C21.9009 224.487 20.2116 225.767 18.8926 227.388C17.5736 229.009 16.6635 230.924 16.2392 232.971C15.8149 235.018 15.8888 237.137 16.4546 239.149C17.0205 241.162 18.0617 243.008 19.4904 244.533C20.9191 246.058 22.6934 247.217 24.6636 247.912C25.3225 243.65 27.104 239.641 29.8249 236.297C32.5459 232.953 36.1079 230.395 40.1446 228.886Z" fill="#1B294C"/>
<path d="M34.1893 236.968C31.8168 231.554 27.5603 227.187 22.2115 224.679" stroke="white" stroke-width="4" stroke-miterlimit="10" stroke-linecap="round"/>
<path d="M32.2177 238.932C28.1035 234.649 22.5572 232.033 16.6379 231.583" stroke="white" stroke-width="4" stroke-miterlimit="10" stroke-linecap="round"/>
<path d="M24.6636 247.912C27.1938 248.804 29.9376 248.893 32.52 248.165C35.1024 247.438 37.3974 245.931 39.0913 243.849C40.7853 241.767 41.7956 239.212 41.9841 236.534C42.1726 233.856 41.5302 231.185 40.1446 228.886C36.1079 230.395 32.5459 232.953 29.8249 236.297C27.104 239.641 25.3225 243.65 24.6636 247.912Z" fill="#1B294C"/>
<path d="M20.9091 203.546C20.8639 201.456 21.3214 199.387 22.2432 197.511C23.165 195.636 24.524 194.009 26.2055 192.77C27.887 191.53 29.8418 190.713 31.9049 190.388C33.968 190.063 36.0789 190.239 38.0597 190.902C40.0405 191.565 41.8329 192.694 43.2859 194.196C44.7389 195.697 45.8099 197.526 46.4084 199.529C47.0069 201.531 47.1154 203.648 46.7248 205.702C46.3343 207.755 45.456 209.684 44.1642 211.326C41.3283 208.078 37.6789 205.646 33.5915 204.278C29.5041 202.911 25.1264 202.658 20.9091 203.546Z" fill="#1B294C"/>
<path d="M30.2641 207.182C29.371 201.338 30.632 195.368 33.8121 190.386" stroke="white" stroke-width="4" stroke-miterlimit="10" stroke-linecap="round"/>
<path d="M32.9722 207.784C34.1608 201.965 37.4475 196.786 42.206 193.235" stroke="white" stroke-width="4" stroke-miterlimit="10" stroke-linecap="round"/>
<path d="M44.1641 211.326C42.5043 213.436 40.2336 214.982 37.6626 215.752C35.0917 216.521 32.346 216.477 29.8009 215.626C27.2558 214.774 25.0357 213.157 23.4441 210.995C21.8525 208.832 20.9671 206.231 20.909 203.546C25.1264 202.658 29.5041 202.911 33.5914 204.278C37.6788 205.646 41.3283 208.078 44.1641 211.326Z" fill="#1B294C"/>
<path d="M52.1763 204.458C53.4604 202.809 55.122 201.493 57.021 200.621C58.9201 199.75 61.0007 199.348 63.0874 199.451C65.1741 199.553 67.2057 200.156 69.0105 201.209C70.8154 202.262 72.3406 203.734 73.4574 205.501C74.5743 207.268 75.25 209.278 75.4276 211.361C75.6051 213.445 75.2793 215.54 74.4776 217.471C73.676 219.402 72.4219 221.111 70.8214 222.455C69.2208 223.799 67.3207 224.737 65.2815 225.192C65.1343 220.882 63.8426 216.69 61.5393 213.046C59.236 209.402 56.0042 206.438 52.1763 204.458Z" fill="#1B294C"/>
<path d="M57.1301 213.191C60.1258 208.094 64.8713 204.26 70.4823 202.404" stroke="white" stroke-width="4" stroke-miterlimit="10" stroke-linecap="round"/>
<path d="M58.8457 215.376C63.4406 211.615 69.2585 209.679 75.1889 209.937" stroke="white" stroke-width="4" stroke-miterlimit="10" stroke-linecap="round"/>
<path d="M65.2815 225.192C62.6635 225.775 59.9294 225.536 57.4526 224.506C54.9758 223.476 52.8772 221.706 51.4434 219.437C50.0096 217.169 49.3105 214.513 49.4417 211.832C49.5729 209.151 50.5279 206.576 52.1763 204.458C56.0042 206.438 59.236 209.402 61.5393 213.046C63.8427 216.69 65.1343 220.882 65.2815 225.192Z" fill="#1B294C"/>
<path d="M562.114 359.211C562.073 359.321 562.022 359.426 561.961 359.526C562.022 359.427 562.074 359.321 562.114 359.211Z" fill="#CA7358"/>
<path d="M558.173 359.546H531.433L540.86 350.548C543.667 352.15 548.033 354.595 552.064 356.658C554.24 357.772 556.336 358.784 558.044 359.493C558.087 359.511 558.13 359.528 558.173 359.546Z" fill="white" stroke="black" stroke-width="2"/>
<path d="M560.54 357.779C560.103 357.634 559.587 357.438 559.001 357.195C557.385 356.525 555.358 355.549 553.203 354.446C549.713 352.66 545.958 350.578 543.203 349.018L548.303 344.154C548.668 344.471 549.117 344.866 549.625 345.322C551.027 346.58 552.875 348.295 554.671 350.134C556.477 351.983 558.185 353.912 559.342 355.605C559.922 356.453 560.323 357.186 560.54 357.778C560.54 357.779 560.54 357.779 560.54 357.779Z" fill="white" stroke="black" stroke-width="3"/>
<path d="M540.745 340.661L538.711 325.111L538.904 325.078L538.818 324.585C538.904 325.078 538.904 325.078 538.904 325.077L538.905 325.077L538.908 325.077L538.919 325.075L538.964 325.067L539.138 325.036C539.29 325.009 539.512 324.969 539.796 324.918C540.363 324.815 541.173 324.666 542.147 324.479C544.094 324.106 546.696 323.585 549.314 322.994C551.929 322.403 554.571 321.739 556.594 321.078C557.603 320.749 558.476 320.414 559.12 320.083C559.202 320.04 559.281 319.997 559.358 319.954C559.282 320.203 559.171 320.486 559.021 320.803C558.599 321.694 557.916 322.752 557.039 323.92C555.289 326.253 552.821 328.96 550.297 331.539C547.776 334.116 545.212 336.554 543.277 338.348C542.31 339.245 541.5 339.981 540.933 340.492C540.867 340.552 540.804 340.608 540.745 340.661Z" fill="white" stroke="black"/>
<path d="M541.865 323.006C540.967 323.178 540.208 323.318 539.654 323.419L538.677 316.945C540.946 316.825 545.299 316.656 549.463 316.839C551.967 316.949 554.35 317.185 556.158 317.617C557.065 317.834 557.774 318.088 558.269 318.369C558.431 318.461 558.557 318.548 558.654 318.628C558.589 318.666 558.516 318.706 558.432 318.749C557.895 319.026 557.111 319.332 556.128 319.652C554.174 320.291 551.585 320.943 548.983 321.531C546.387 322.117 543.803 322.635 541.865 323.006ZM559.015 318.371C559.019 318.366 559.022 318.364 559.022 318.364C559.022 318.364 559.02 318.366 559.015 318.371Z" fill="white" stroke="black" stroke-width="2"/>
<path d="M535.086 318.49L535.863 302.305" stroke="black" stroke-width="3" stroke-linecap="round" stroke-linejoin="round"/>
<path d="M531.929 316.719L527.729 296.076" stroke="black" stroke-width="3" stroke-linecap="round" stroke-linejoin="round"/>
<g filter="url(#filter0_d_180_502)">
<path d="M463.367 360.667L442.357 332.653L452.139 322.315C451.241 319.169 447.199 305.236 441.809 300.741C436.42 296.247 431.48 296.247 428.785 297.146L428.704 297.173C428.039 297.419 427.454 297.842 427.012 298.396C426.569 298.951 426.287 299.616 426.194 300.32C426.102 301.023 426.203 301.739 426.487 302.389C426.771 303.039 427.227 303.599 427.806 304.009L432.827 308.405C432.827 308.405 421.599 316.944 421.599 326.383C421.599 332.963 425.147 336.334 428.664 338.069L419.354 351.103C419.354 351.103 409.922 352.451 391.509 347.058C385.899 345.413 379.832 342.563 374.164 339.947C374.164 346.069 371.352 350.973 367.189 354.582C376.737 358.348 388.89 360.667 398.322 360.667H463.367Z" fill="white"/>
<path d="M375.539 342.235C380.612 344.574 386.021 347.012 391.087 348.497L391.087 348.497C400.393 351.223 407.46 352.254 412.228 352.599C414.612 352.772 416.421 352.772 417.646 352.728C418.259 352.706 418.726 352.673 419.046 352.644C419.207 352.63 419.33 352.617 419.417 352.607C419.46 352.602 419.494 352.597 419.519 352.594L419.549 352.59L419.559 352.589L419.563 352.588L419.565 352.588C419.565 352.588 419.566 352.588 419.354 351.103L419.566 352.588L420.201 352.497L420.574 351.975L429.884 338.941L430.91 337.504L429.328 336.724C427.731 335.936 426.185 334.805 425.039 333.179C423.903 331.567 423.099 329.386 423.099 326.383C423.099 322.214 425.61 318.069 428.358 314.824C429.707 313.23 431.06 311.917 432.077 311.001C432.584 310.544 433.005 310.189 433.296 309.949C433.442 309.83 433.555 309.74 433.63 309.681C433.667 309.651 433.695 309.629 433.713 309.615L433.732 309.601L433.735 309.598L433.736 309.598L433.736 309.598L435.198 308.486L433.815 307.276L428.794 302.88L428.736 302.829L428.673 302.785C428.317 302.533 428.036 302.188 427.862 301.788L426.487 302.389L427.862 301.788C427.687 301.388 427.625 300.948 427.681 300.515C427.738 300.082 427.912 299.673 428.184 299.332L427.012 298.396L428.184 299.332C428.452 298.996 428.804 298.739 429.205 298.587L429.26 298.569L429.26 298.569C431.438 297.842 435.839 297.715 440.849 301.893C442 302.853 443.158 304.393 444.273 306.318C445.376 308.224 446.385 310.416 447.268 312.597C448.782 316.338 449.893 319.965 450.46 321.907L441.268 331.622L440.398 332.541L441.157 333.553L460.367 359.167H398.322C389.797 359.167 378.946 357.224 369.949 354.015C372.927 350.865 375.022 346.922 375.539 342.235Z" stroke="black" stroke-width="3"/>
</g>
<path d="M406.779 350.878C408.341 353.894 410.259 356.986 413.641 359.724" stroke="#30242A" stroke-width="3" stroke-miterlimit="10" stroke-linecap="round"/>
<path d="M361.01 336.364C357.401 335.469 355.48 335.883 354.543 337.158L361.01 336.364ZM361.01 336.364C364.27 337.173 368.251 338.896 372.642 340.901M361.01 336.364L372.642 340.901M372.642 340.901C372.402 345.744 370.188 349.733 366.881 352.84C361.632 350.68 357.454 348.137 355.126 345.446C353.916 344.047 353.277 342.69 353.157 341.392C353.039 340.119 353.401 338.716 354.543 337.159L372.642 340.901Z" fill="#F5EBDD" stroke="black" stroke-width="3"/>
<path d="M427.858 325.182L427.858 325.183L427.859 325.183L427.859 325.183L428.609 326.91L430.124 325.792C433.938 322.98 437.945 322.939 441.091 323.638C442.668 323.988 444.006 324.522 444.95 324.969C445.42 325.191 445.787 325.39 446.032 325.53C446.155 325.6 446.246 325.655 446.305 325.691C446.334 325.709 446.354 325.722 446.366 325.73L446.376 325.736L446.377 325.736L446.378 325.737L446.378 325.737L446.378 325.737L447.316 326.352L447.4 326.281C448.747 327.517 451.211 330.016 454.063 333.998L454.347 334.394L454.808 334.548C460.777 336.537 469.459 335.489 476.649 331.864C483.317 328.502 489.039 322.739 490.038 314.68C493.227 316.006 496.171 317.872 498.737 320.199L500.193 321.519L501.082 319.767L504.226 313.578L504.742 312.564L503.903 311.794L497.616 306.023L497.61 306.018C497.282 305.719 497.035 305.342 496.892 304.921L495.471 305.403L496.892 304.921C496.749 304.5 496.715 304.05 496.794 303.612C496.873 303.175 497.062 302.765 497.342 302.42C497.62 302.08 497.979 301.815 498.385 301.649L498.476 301.615L498.476 301.615C501.567 300.455 505.85 300.686 510.09 303.774L510.09 303.774C512.203 305.312 513.758 308.121 514.799 310.754C515.307 312.039 515.67 313.221 515.905 314.081C516.022 314.51 516.107 314.856 516.162 315.093C516.189 315.211 516.209 315.301 516.222 315.36C516.228 315.39 516.233 315.412 516.236 315.425L516.238 315.439L516.239 315.44L516.239 315.441L516.239 315.441L516.239 315.441L516.629 317.391L518.397 316.48C531.463 309.743 544.03 316.681 547.938 325.024C547.181 325.531 546.459 326.177 545.859 326.866C544.946 327.914 544.055 329.363 544.055 330.864C544.055 333.115 545.578 334.611 546.996 335.512C548.011 336.157 549.141 336.613 550.096 336.924C550.133 341.997 549.171 347.391 546.484 351.571C543.669 355.947 538.856 359.167 530.734 359.167H416.71C406.853 351.654 405.648 342.368 406.911 334.814C407.556 330.955 408.85 327.556 409.99 325.113C410.559 323.894 411.086 322.922 411.468 322.259C411.659 321.927 411.813 321.674 411.917 321.506C411.97 321.422 412.01 321.36 412.035 321.32L412.063 321.277L412.069 321.268L412.069 321.268L412.069 321.267L412.07 321.267L412.925 319.984L411.616 319.165L405.302 315.214L405.302 315.214L405.293 315.209C404.854 314.938 404.481 314.571 404.202 314.136C403.923 313.701 403.746 313.209 403.683 312.695C403.62 312.182 403.673 311.662 403.839 311.172C404.004 310.685 404.276 310.24 404.634 309.872L404.696 309.811L404.696 309.811C404.948 309.559 405.58 309.221 406.701 308.988C407.772 308.767 409.104 308.68 410.54 308.763C413.45 308.933 416.485 309.783 418.439 311.287L418.439 311.288C420.885 313.171 423.234 316.569 425.017 319.649C425.893 321.163 426.607 322.553 427.101 323.563C427.347 324.068 427.538 324.477 427.667 324.758C427.732 324.898 427.78 325.007 427.812 325.079L427.848 325.159L427.857 325.178L427.858 325.182Z" fill="white" stroke="black" stroke-width="3"/>
<path d="M474.653 311.495L474.654 311.494C479.213 310.954 483.833 311.441 488.177 312.919C487.854 320.889 482.481 326.684 475.748 330.078C468.966 333.498 460.933 334.412 455.594 332.7C452.264 328.055 449.434 325.378 448.187 324.301C449.502 323.21 452.726 320.658 457.019 318.101C461.946 315.167 468.242 312.249 474.653 311.495Z" fill="#F5EBDD" stroke="black"/>
<path d="M545.555 330.864C545.555 333.839 549.538 335.264 551.573 335.808C551.485 332.583 550.972 329.383 550.046 326.293C549.983 326.095 549.907 325.902 549.839 325.704C547.953 326.459 545.555 328.958 545.555 330.864Z" fill="black"/>
<path d="M541.948 331.938L548.335 330.994" stroke="black" stroke-width="3" stroke-linecap="round" stroke-linejoin="round"/>
<path d="M518.85 315.371C520.678 322.742 522.928 333.044 523.791 339.642" stroke="black" stroke-width="3" stroke-linecap="round" stroke-linejoin="round"/>
<path d="M499.072 304.584L497.401 307.088" stroke="black" stroke-width="4" stroke-linecap="round" stroke-linejoin="round"/>
<path d="M502.215 307.281L500.455 309.919" stroke="black" stroke-width="4" stroke-linecap="round" stroke-linejoin="round"/>
<path d="M405.656 312.674L403.967 315.209" stroke="black" stroke-width="3" stroke-linecap="round" stroke-linejoin="round"/>
<path d="M409.249 314.922L407.425 317.654" stroke="black" stroke-width="3" stroke-linecap="round" stroke-linejoin="round"/>
<path d="M499.063 318.809C490.893 333.749 484.147 349.593 496.92 360.074" stroke="black" stroke-width="3" stroke-linecap="round" stroke-linejoin="round"/>
<path d="M538.535 326.711C538.535 326.711 539.882 330.918 541.948 331.938C541.948 331.938 540.484 334.037 540.242 338.1" stroke="black" stroke-width="3" stroke-linecap="round" stroke-linejoin="round"/>
<path d="M482.379 309.609L481.41 309.512L480.929 310.354L480.929 310.355L480.929 310.355L480.928 310.356L480.925 310.36C480.922 310.367 480.914 310.379 480.904 310.397C480.882 310.432 480.848 310.488 480.801 310.562C480.706 310.709 480.561 310.927 480.368 311.19C479.98 311.718 479.41 312.415 478.681 313.094C477.201 314.473 475.238 315.628 472.913 315.449C471.849 315.367 471.208 314.944 470.818 314.4C470.402 313.819 470.159 312.934 470.252 311.783C470.435 309.487 471.941 306.515 474.972 304.266C477.475 302.814 480.429 302.347 483.259 302.958C484.258 303.176 485.284 303.88 486.3 305.022C487.305 306.151 488.196 307.593 488.943 309.056C489.402 309.955 489.798 310.844 490.125 311.643C489.971 311.585 489.813 311.526 489.651 311.467C487.571 310.709 484.816 309.853 482.379 309.609Z" fill="white" stroke="black" stroke-width="3"/>
<path d="M532.98 275.351L540.372 270.83L537.085 282.336L545.779 277.167" stroke="black" stroke-width="4" stroke-linecap="round" stroke-linejoin="round"/>
<path d="M549.13 256.685L556.913 256.065L549.583 263.98L558.354 263.369" stroke="black" stroke-width="4" stroke-linecap="round" stroke-linejoin="round"/>
<path d="M472.102 312.638L472.093 316.045" stroke="black" stroke-width="3" stroke-linecap="round" stroke-linejoin="round"/>
<path d="M476.212 312.247L476.203 315.623" stroke="black" stroke-width="3" stroke-linecap="round" stroke-linejoin="round"/>
<path d="M429.288 301.568L427.662 303.308" stroke="black" stroke-width="3" stroke-linecap="round" stroke-linejoin="round"/>
<path d="M432.468 303.923L430.532 305.995" stroke="black" stroke-width="3" stroke-linecap="round" stroke-linejoin="round"/>
<path d="M268.586 131.516L254.08 121.497L253.456 121.048C249.616 119.25 239.192 119.767 239.717 115.569C239.83 114.67 240.885 113.992 242.551 113.524L221.47 99.0021C220.69 98.4669 219.73 98.2611 218.799 98.4294C217.869 98.5977 217.042 99.1264 216.498 99.901L214.253 103.133C215.376 104.111 216.099 105.469 216.285 106.947C216.472 108.426 216.107 109.921 215.262 111.148C214.417 112.375 213.15 113.247 211.703 113.598C210.256 113.949 208.73 113.755 207.417 113.052L204.848 116.778C204.312 117.559 204.105 118.52 204.274 119.453C204.442 120.386 204.971 121.214 205.746 121.758L252.858 154.272C253.639 154.809 254.599 155.015 255.531 154.847C256.463 154.679 257.291 154.149 257.835 153.373L261.939 147.418L269.503 136.487C270.034 135.704 270.236 134.744 270.065 133.813C269.893 132.883 269.362 132.057 268.586 131.516ZM241.28 139.858C239.37 139.858 237.504 139.291 235.916 138.229C234.328 137.167 233.09 135.658 232.359 133.892C231.628 132.127 231.437 130.184 231.81 128.309C232.182 126.435 233.102 124.713 234.452 123.361C235.803 122.01 237.523 121.09 239.396 120.717C241.269 120.344 243.211 120.535 244.975 121.267C246.74 121.998 248.248 123.237 249.309 124.826C250.37 126.415 250.936 128.283 250.936 130.194C250.935 132.757 249.917 135.214 248.107 137.026C246.296 138.838 243.841 139.857 241.28 139.858ZM262.613 138.226L256.999 146.317C256.754 146.666 256.38 146.905 255.96 146.981C255.539 147.057 255.106 146.963 254.754 146.721C254.402 146.477 254.162 146.103 254.085 145.682C254.009 145.261 254.102 144.826 254.345 144.474L259.963 136.384C260.085 136.209 260.239 136.06 260.418 135.945C260.597 135.83 260.796 135.751 261.005 135.713C261.214 135.676 261.429 135.679 261.637 135.725C261.844 135.77 262.041 135.855 262.216 135.977C262.39 136.098 262.539 136.253 262.654 136.431C262.769 136.61 262.848 136.81 262.885 137.02C262.923 137.229 262.919 137.444 262.874 137.651C262.829 137.859 262.743 138.056 262.622 138.231L262.613 138.226Z" fill="#1B294C"/>
<path d="M241.28 139.858C246.613 139.858 250.936 135.531 250.936 130.194C250.936 124.858 246.613 120.531 241.28 120.531C235.947 120.531 231.624 124.858 231.624 130.194C231.624 135.531 235.947 139.858 241.28 139.858Z" fill="#3EC1F3"/>
<path d="M216.354 107.722C216.355 106.855 216.169 105.998 215.809 105.209C215.45 104.42 214.925 103.718 214.271 103.151L207.435 113.07C208.313 113.544 209.294 113.791 210.291 113.789C211.899 113.789 213.442 113.15 214.579 112.012C215.716 110.874 216.354 109.331 216.354 107.722Z" fill="#3EC1F3"/>
<path d="M262.195 135.97C261.843 135.728 261.409 135.635 260.989 135.712C260.568 135.789 260.195 136.028 259.95 136.379L254.331 144.469C254.089 144.822 253.995 145.256 254.072 145.677C254.149 146.099 254.389 146.472 254.74 146.717C255.092 146.959 255.526 147.052 255.946 146.976C256.367 146.901 256.74 146.662 256.986 146.312L262.6 138.222C262.844 137.869 262.939 137.434 262.863 137.012C262.788 136.59 262.547 136.215 262.195 135.97Z" fill="#30242A"/>
<path d="M239.422 149.135L238.806 148.519L237.972 148.747C237.973 148.746 237.973 148.746 237.972 148.747L237.971 148.747L237.951 148.752C237.929 148.757 237.891 148.766 237.838 148.777C237.733 148.799 237.571 148.829 237.37 148.855C236.96 148.908 236.414 148.94 235.838 148.874C234.71 148.743 233.608 148.27 232.995 146.89L232.386 145.518L231.023 146.124L231.015 146.128C231.001 146.133 230.975 146.144 230.937 146.157C230.86 146.185 230.741 146.225 230.589 146.264C230.278 146.345 229.872 146.413 229.447 146.393C229.028 146.374 228.623 146.273 228.259 146.042C227.905 145.817 227.499 145.414 227.157 144.642L227.155 144.638C226.888 144.042 226.371 143.832 226.114 143.766C225.873 143.704 225.664 143.711 225.582 143.714C225.437 143.721 225.26 143.746 225.168 143.759C225.155 143.761 225.143 143.762 225.133 143.764C224.902 143.796 224.68 143.819 224.431 143.798C224.009 143.763 223.299 143.586 222.479 142.533C221.141 140.811 219.957 137.293 219.466 134.017C219.224 132.402 219.173 130.986 219.307 130.004C219.364 129.591 219.444 129.327 219.51 129.178C220.047 129.145 220.545 129.34 221.066 129.777C221.689 130.3 222.262 131.112 222.76 132.055C223.249 132.981 223.617 133.938 223.873 134.67C223.967 134.94 224.042 135.166 224.106 135.358C224.129 135.429 224.151 135.495 224.172 135.557C224.204 135.653 224.247 135.78 224.289 135.882C224.289 135.882 224.289 135.883 224.289 135.884C224.299 135.907 224.367 136.08 224.49 136.249C224.53 136.302 224.615 136.413 224.75 136.524C224.866 136.62 225.177 136.849 225.648 136.868C226.213 136.891 226.631 136.605 226.859 136.334C227.05 136.108 227.124 135.883 227.151 135.794L227.152 135.788C227.629 134.175 228.262 132.761 228.934 131.785C229.673 130.713 230.169 130.571 230.277 130.571C231.235 130.571 231.7 131.003 231.99 131.455C232.15 131.704 232.254 131.964 232.317 132.169C232.348 132.268 232.367 132.348 232.378 132.396C232.383 132.419 232.385 132.434 232.387 132.441L232.898 136.021L235.066 133.122C235.067 133.121 235.068 133.12 235.069 133.118C235.075 133.111 235.087 133.095 235.106 133.073C235.143 133.029 235.204 132.959 235.286 132.874C235.454 132.7 235.693 132.48 235.986 132.281C236.582 131.877 237.24 131.659 237.948 131.861L237.949 131.861C238.736 132.087 239.058 132.643 239.179 133.451C239.24 133.859 239.232 134.267 239.204 134.584C239.19 134.739 239.172 134.864 239.159 134.945C239.152 134.986 239.147 135.015 239.143 135.031L239.141 135.044L239.141 135.044L239.141 135.045L238.335 138.672L241.428 136.618C241.429 136.618 241.429 136.618 241.43 136.617C241.437 136.613 241.454 136.603 241.478 136.589C241.527 136.561 241.606 136.518 241.708 136.471C241.918 136.375 242.183 136.281 242.454 136.244C242.719 136.207 242.938 136.231 243.119 136.31C243.283 136.381 243.533 136.548 243.795 137.006C244.324 137.933 244.144 139.093 243.498 141.15C243.439 141.338 243.376 141.533 243.312 141.734C242.743 143.5 242.022 145.74 242.258 148.097L242.328 148.802L242.918 149.196L243.887 149.842C243.718 149.935 243.539 150.022 243.352 150.099C242.777 150.333 242.173 150.445 241.56 150.35C240.964 150.257 240.235 149.949 239.422 149.135ZM219.296 129.202L219.296 129.202L219.296 129.202Z" fill="white" stroke="black" stroke-width="3"/>
<path d="M240.346 134.662C238.428 138.015 235.406 144.514 237.31 149.539" stroke="black" stroke-width="4" stroke-linecap="round" stroke-linejoin="round"/>
<path d="M233.497 131.543C232.28 134.419 229.729 141.395 230.829 147.018" stroke="black" stroke-width="4" stroke-linecap="round" stroke-linejoin="round"/>
<path d="M225.215 134.24C224.623 137.116 224.187 140.95 224.95 144.451" stroke="black" stroke-width="4" stroke-linecap="round" stroke-linejoin="round"/>
<path d="M392.573 66.6075L394.178 66.0722C396.502 65.2969 399.138 63.1906 400.651 60.5659C402.135 57.9916 402.425 55.1681 400.617 52.6355L400.617 52.6352C399.368 50.8835 398.005 50.2633 396.686 50.1617C395.285 50.0538 393.742 50.5202 392.215 51.3147C390.706 52.1007 389.34 53.141 388.338 54.0032C387.841 54.4309 387.443 54.8069 387.171 55.0734C387.036 55.2065 386.932 55.3119 386.864 55.3821C386.83 55.4172 386.805 55.4435 386.79 55.4601L386.773 55.4776L386.771 55.4797L386.771 55.4803L386.77 55.4806L386.77 55.4807L385.864 56.4595L384.786 55.6724C380.575 52.5989 377.3 48.4284 375.309 43.6269C374.549 43.7544 373.647 43.8468 372.7 43.8807C371.469 43.9246 370.072 43.8736 368.71 43.6385C368.609 43.9754 368.494 44.379 368.369 44.8466C367.934 46.4799 367.385 48.8931 366.945 51.9745C366.82 52.8671 366.671 53.725 366.51 54.5477L366.257 55.8354L364.949 55.7559L364.949 55.7559L364.948 55.7558L364.948 55.7558L364.947 55.7558L364.946 55.7557L364.923 55.7546C364.901 55.7536 364.866 55.7522 364.819 55.7508C364.724 55.7481 364.585 55.7457 364.414 55.7479C364.068 55.7523 363.619 55.7749 363.172 55.8427C362.709 55.913 362.341 56.0187 362.104 56.1412C362.032 56.1782 361.989 56.2074 361.965 56.2264C361.951 56.3414 361.969 56.5284 362.108 56.8201C362.272 57.1641 362.554 57.5425 362.907 57.9186C363.253 58.2868 363.622 58.6051 363.91 58.8342C364.052 58.9474 364.171 59.0354 364.251 59.0935C364.291 59.1225 364.322 59.1438 364.34 59.1568L364.359 59.1699L364.359 59.17L364.36 59.1704L364.361 59.1707L364.361 59.1712L364.362 59.1716L365.259 59.7731L364.97 60.817C364.952 60.8827 364.934 60.9482 364.915 61.0133C363.525 66.0247 362.606 69.34 364.159 73.2313L392.573 66.6075ZM392.573 66.6075L393.297 68.1365C395.079 71.9037 398.447 74.701 401.692 76.681C404.383 78.3225 407.1 79.4688 409.026 80.1758C408.892 81.607 408.765 82.9612 408.648 84.1981H379.577M392.573 66.6075L379.577 84.1981M379.577 84.1981L379.972 81.1727L380.223 79.2497L378.298 79.4904C373.128 80.1372 369.969 79.3344 367.963 78.0971C365.961 76.8618 364.888 75.058 364.159 73.2315L379.577 84.1981ZM361.939 56.2515C361.938 56.2514 361.94 56.2487 361.945 56.2436C361.942 56.249 361.939 56.2515 361.939 56.2515Z" fill="white" stroke="black" stroke-width="3"/>
<path d="M398.245 27.0438C385.221 21.2009 373.095 30.19 373.095 30.19C373.095 30.19 362.02 26.9989 361.418 34.2351C360.969 39.6286 367.706 41.8759 367.706 41.8759C370.849 42.7748 374.892 42.3254 376.239 41.8759C378.057 46.9187 381.342 51.3016 385.67 54.4608C385.67 54.4608 395.888 43.4221 401.838 51.764C406.329 58.0564 400.042 65.6972 394.653 67.495C397.855 74.2639 406.981 77.9225 410.627 79.1495C411.418 70.5783 412.366 59.7239 412.617 54.4608C413.026 45.8806 412.168 33.2958 398.245 27.0438Z" fill="#1B294C"/>
<path d="M308.872 125.925L309.727 127.157L309.727 127.157L309.728 127.156L309.73 127.155L309.738 127.149L309.772 127.126L309.905 127.034L310.422 126.676C310.874 126.363 311.535 125.906 312.37 125.33C313.773 124.363 315.668 123.06 317.89 121.54L333.646 147.567C328.805 150.346 323.196 153.141 317.451 155.13C311.161 157.308 304.824 158.478 299.197 157.699L299.196 157.698C287.003 156.019 275.17 152.356 264.165 146.858L270.72 137.347L270.721 137.345C271.481 136.238 271.773 134.876 271.535 133.555C271.297 132.233 270.547 131.059 269.448 130.288L269.448 130.288L269.438 130.281L254.299 119.831L254.195 119.76L254.082 119.707C252.917 119.163 251.362 118.831 249.863 118.563C249.256 118.455 248.658 118.356 248.067 118.259C247.105 118.101 246.162 117.946 245.235 117.755C243.743 117.449 242.585 117.102 241.855 116.67C241.505 116.462 241.339 116.284 241.265 116.165C241.213 116.08 241.177 115.983 241.193 115.81C241.215 115.78 241.272 115.715 241.406 115.621C241.694 115.418 242.189 115.191 242.933 114.99L242.933 114.99L242.946 114.986C245.201 114.356 248.862 114.112 252.969 114.253C257.041 114.393 261.399 114.906 264.982 115.703L264.982 115.703C271.002 117.042 281.856 119.953 291.238 122.539C295.922 123.83 300.228 125.037 303.363 125.921C304.93 126.364 306.205 126.725 307.087 126.976C307.528 127.101 307.872 127.199 308.104 127.265L308.369 127.341L308.437 127.36L308.454 127.365L308.458 127.366L308.459 127.367C308.459 127.367 308.459 127.367 308.872 125.925ZM308.872 125.925L309.727 127.157L309.143 127.562L308.459 127.367L308.872 125.925ZM239.708 115.587C239.821 114.684 240.876 113.991 242.542 113.542L239.708 115.587ZM239.708 115.587C239.363 118.345 243.738 119.066 247.873 119.748M239.708 115.587L247.873 119.748M247.873 119.748C250.031 120.103 252.124 120.448 253.447 121.066L247.873 119.748ZM241.185 115.821C241.183 115.827 241.181 115.83 241.181 115.83C241.181 115.83 241.182 115.827 241.185 115.821Z" fill="white" stroke="black" stroke-width="3"/>
<path d="M413.701 171.618H339.713L350.711 139.444L352.317 134.746L348.379 137.769C344.489 140.755 340.434 143.518 336.233 146.047L320.369 119.821C329.688 113.432 342.929 104.435 350.993 99.3253L350.993 99.3251C356.32 95.9486 362.821 94.3052 368.071 93.5178C370.683 93.1261 372.953 92.9506 374.568 92.8732C375.375 92.8345 376.016 92.8203 376.453 92.8158C376.671 92.8135 376.838 92.8136 376.948 92.8143C377.003 92.8146 377.044 92.8151 377.071 92.8155L377.099 92.8159L377.105 92.816L377.105 92.816L377.106 92.816L377.106 92.816L378.451 92.8443L378.624 91.5102L379.186 87.1981H408.364C408.272 88.1681 408.192 88.9929 408.13 89.6353C408.083 90.1249 408.045 90.5085 408.02 90.7695L407.991 91.0672L407.983 91.1432L407.981 91.1624L407.981 91.1672L407.981 91.1683L407.981 91.1686L407.981 91.1687L407.968 91.2958L407.977 91.4231L413.701 171.618Z" fill="white" stroke="black" stroke-width="3"/>
<path d="M367.189 64.5736C367.93 65.0231 370.715 65.3961 371.842 63.2522" stroke="black" stroke-width="4" stroke-linecap="round" stroke-linejoin="round"/>
<path d="M372.646 54.0113C373.39 54.0113 373.993 53.4076 373.993 52.6629C373.993 51.9183 373.39 51.3146 372.646 51.3146C371.902 51.3146 371.299 51.9183 371.299 52.6629C371.299 53.4076 371.902 54.0113 372.646 54.0113Z" fill="black"/>
<path d="M396 57.1576L391.06 60.3038" stroke="black" stroke-width="4" stroke-linecap="round" stroke-linejoin="round"/>
<path d="M350.756 213.117L350.756 213.118L350.754 213.124L350.745 213.148L350.709 213.246C350.677 213.333 350.63 213.463 350.571 213.63C350.451 213.964 350.282 214.448 350.083 215.042C349.683 216.232 349.166 217.856 348.691 219.599C348.215 221.349 347.791 223.185 347.566 224.809C347.332 226.501 347.353 227.72 347.571 228.377C347.814 229.105 348.112 229.338 348.281 229.427C348.48 229.532 348.77 229.578 349.181 229.513C349.591 229.448 350.009 229.289 350.348 229.126C350.512 229.047 350.644 228.974 350.732 228.922C350.776 228.897 350.808 228.877 350.826 228.865L350.839 228.857L350.84 228.857L350.841 228.856L350.842 228.855L350.843 228.854L350.844 228.854L351.949 228.116L352.814 229.132C353.631 230.091 354.3 230.404 354.76 230.494C355.222 230.584 355.678 230.489 356.142 230.252C356.618 230.008 357.041 229.644 357.361 229.31C357.516 229.149 357.635 229.005 357.714 228.906C357.752 228.857 357.78 228.82 357.797 228.798L357.81 228.78L357.81 228.779L357.812 228.777L357.812 228.776L357.813 228.775L358.687 227.498L359.938 228.421C360.472 228.816 360.888 228.859 361.274 228.769C361.738 228.662 362.334 228.318 363.044 227.608C364.468 226.182 365.894 223.747 367.181 220.984C368.45 218.259 369.517 215.363 370.27 213.136C370.645 212.026 370.94 211.088 371.14 210.429C371.241 210.1 371.317 209.841 371.368 209.665C371.394 209.577 371.413 209.51 371.426 209.466L371.44 209.416L371.443 209.405L371.444 209.402L371.444 209.402L371.444 209.402L371.626 208.755L372.229 208.46C375.836 206.694 379.057 204.228 381.703 201.205L382.175 200.666L382.891 200.694H382.891L382.892 200.694L382.896 200.695L382.915 200.695L382.994 200.698C383.064 200.7 383.17 200.704 383.31 200.708C383.589 200.716 384.003 200.726 384.537 200.734C385.605 200.751 387.151 200.761 389.055 200.734C392.866 200.68 398.099 200.478 403.795 199.885C409.497 199.292 415.63 198.312 421.251 196.712C426.892 195.106 431.905 192.908 435.459 189.944L350.756 213.117ZM350.756 213.117L350.756 213.117C350.756 213.117 350.756 213.117 350.755 213.117M350.756 213.117L350.755 213.117M350.755 213.117L348.132 211.723C348.13 211.721 348.13 211.721 348.13 211.721L348.13 211.722L348.13 211.722L348.127 211.726L348.114 211.744C348.108 211.752 348.1 211.763 348.091 211.776C348.082 211.789 348.071 211.803 348.058 211.82C348.008 211.889 347.933 211.99 347.835 212.121C347.64 212.382 347.353 212.758 346.993 213.208C346.273 214.112 345.271 215.304 344.136 216.477C342.994 217.657 341.757 218.775 340.569 219.561C339.477 220.283 338.612 220.6 337.993 220.622C337.998 220.433 338.034 220.132 338.149 219.693C338.515 218.285 339.451 216.292 340.687 214.08C343.135 209.701 346.492 204.93 347.786 203.247C350.414 199.832 357.502 191.713 363.181 187.451L363.181 187.45C369.43 182.758 381.902 177.744 393.016 173.864C398.533 171.939 403.65 170.314 407.388 169.171C409.256 168.6 410.779 168.149 411.834 167.842C412.362 167.688 412.772 167.57 413.05 167.49C413.189 167.451 413.295 167.421 413.366 167.401L413.445 167.378L413.465 167.372L413.47 167.371L413.471 167.371C413.471 167.371 413.471 167.371 413.066 165.926L413.471 167.371L414.622 167.048L414.564 165.854L413.841 150.797H446.366C446.204 159.473 445.247 167.655 443.487 174.441C441.611 181.675 438.883 187.089 435.459 189.944L350.755 213.117Z" fill="white" stroke="black" stroke-width="3"/>
<path d="M440.384 107.065L440.384 107.065C444.311 119.044 446.354 133.846 446.39 147.796H413.696L411.047 92.8164H420.701C423.741 92.8164 427.911 93.9924 431.73 96.4161C435.53 98.8283 438.853 102.394 440.384 107.065Z" fill="white" stroke="black" stroke-width="3"/>
<path d="M348.295 213.371C349.705 209.596 351.856 204 353.559 200.31" stroke="black" stroke-width="4" stroke-linecap="round" stroke-linejoin="round"/>
<path d="M359.846 203.456C355.032 213.834 352.211 225.479 351.313 229.686" stroke="black" stroke-width="4" stroke-linecap="round" stroke-linejoin="round"/>
<path d="M366.583 207.052C363.502 214.149 360.659 223.61 359.114 229.12" stroke="black" stroke-width="4" stroke-linecap="round" stroke-linejoin="round"/>
<defs>
<filter id="filter0_d_180_502" x="363.189" y="296.676" width="104.178" height="71.9916" filterUnits="userSpaceOnUse" color-interpolation-filters="sRGB">
<feFlood flood-opacity="0" result="BackgroundImageFix"/>
<feColorMatrix in="SourceAlpha" type="matrix" values="0 0 0 0 0 0 0 0 0 0 0 0 0 0 0 0 0 0 127 0" result="hardAlpha"/>
<feOffset dy="4"/>
<feGaussianBlur stdDeviation="2"/>
<feComposite in2="hardAlpha" operator="out"/>
<feColorMatrix type="matrix" values="0 0 0 0 0 0 0 0 0 0 0 0 0 0 0 0 0 0 0.25 0"/>
<feBlend mode="normal" in2="BackgroundImageFix" result="effect1_dropShadow_180_502"/>
<feBlend mode="normal" in="SourceGraphic" in2="effect1_dropShadow_180_502" result="shape"/>
</filter>
</defs>
</svg>
