<svg width="486" height="390" viewBox="0 0 486 390" fill="none" xmlns="http://www.w3.org/2000/svg">
<path d="M87.465 208.31H76.8775V388.128H87.465V208.31Z" fill="#202E5B"/>
<path d="M87.4693 210.782H76.8775" stroke="#202E5B" stroke-width="4" stroke-miterlimit="10"/>
<path d="M28.8329 352.046C29.9054 348.972 31.9083 346.308 34.5639 344.423C37.2195 342.538 40.3962 341.526 43.6536 341.526C46.9111 341.526 50.0878 342.538 52.7434 344.423C55.399 346.308 57.4019 348.972 58.4744 352.046C59.498 349.112 61.3708 346.547 63.8552 344.678C66.3396 342.809 69.3236 341.72 72.4287 341.548C71.0424 339.079 69.3917 336.768 67.5056 334.656L61.8067 328.25C60.035 326.26 58.9191 323.773 58.6106 321.128C58.3021 318.482 58.8159 315.805 60.0823 313.462L64.9191 304.48C63.5612 305.846 55.7111 313.19 43.7959 313.19C31.8807 313.19 24.0306 305.846 22.6727 304.48H22.6511L27.4922 313.462C28.753 315.81 29.2589 318.49 28.9411 321.136C28.6233 323.782 27.4972 326.266 25.7161 328.25L20.0215 334.63C18.132 336.743 16.477 339.053 15.0856 341.522C18.1573 341.736 21.0982 342.848 23.5426 344.719C25.9869 346.59 27.8266 349.138 28.8329 352.046Z" fill="#202E5B"/>
<path d="M73.2952 361.123C70.0368 361.123 66.8594 362.137 64.2037 364.024C61.548 365.91 59.5456 368.576 58.4744 371.651C57.404 368.575 55.4018 365.909 52.746 364.022C50.0901 362.135 46.9123 361.122 43.6537 361.122C40.395 361.122 37.2172 362.135 34.5613 364.022C31.9055 365.909 29.9034 368.575 28.8329 371.651C27.5367 367.935 24.8904 364.841 21.4187 362.982C17.9471 361.124 13.9034 360.637 10.0893 361.618C10.3083 371.559 14.3174 381.041 21.2975 388.128H66.2124C73.1785 381.057 77.1864 371.598 77.4207 361.678C76.0765 361.31 74.689 361.123 73.2952 361.123Z" fill="#202E5B"/>
<path d="M43.7614 313.208C55.6767 313.208 63.5267 305.863 64.8847 304.497H22.6382C23.9961 305.85 31.8462 313.208 43.7614 313.208Z" fill="#30242A"/>
<path d="M28.8329 371.651C29.9034 368.575 31.9055 365.909 34.5614 364.022C37.2172 362.135 40.395 361.121 43.6537 361.121C46.9123 361.121 50.0902 362.135 52.746 364.022C55.4019 365.909 57.404 368.575 58.4744 371.651C59.7814 367.895 62.4675 364.776 65.989 362.924C69.5106 361.073 73.6045 360.627 77.4422 361.678C77.6193 354.64 75.8901 347.685 72.4373 341.548C69.3323 341.72 66.3483 342.809 63.8639 344.678C61.3795 346.547 59.5066 349.112 58.4831 352.046C57.4106 348.973 55.4077 346.309 52.7521 344.423C50.0965 342.538 46.9197 341.526 43.6623 341.526C40.4049 341.526 37.2281 342.538 34.5725 344.423C31.9169 346.309 29.914 348.973 28.8416 352.046C27.8291 349.145 25.9866 346.606 23.5428 344.742C21.099 342.878 18.1613 341.772 15.0942 341.561C11.6568 347.677 9.931 354.605 10.0979 361.618C13.912 360.637 17.9557 361.124 21.4274 362.982C24.899 364.841 27.5453 367.934 28.8416 371.651H28.8329Z" fill="#3EC1F3"/>
<path d="M46.8911 311.976C47.7533 306.703 51.6719 285.802 61.5265 274.442" stroke="#30242A" stroke-width="4" stroke-miterlimit="10" stroke-linecap="round"/>
<path d="M42.3432 312.127C42.2785 306.139 41.662 276.738 35.8122 259.197" stroke="#30242A" stroke-width="4" stroke-miterlimit="10" stroke-linecap="round"/>
<path d="M68.2712 291.555C76.9117 287.755 83.2228 283.101 82.3675 281.159C81.5122 279.216 73.8143 280.721 65.1738 284.52C56.5333 288.32 50.2222 292.974 51.0775 294.917C51.9328 296.859 59.6307 295.354 68.2712 291.555Z" fill="#30242A"/>
<path d="M68.2661 238.11C71.3725 233.914 72.7036 229.634 71.2393 228.552C69.775 227.47 66.0698 229.994 62.9635 234.191C59.8571 238.387 58.526 242.666 59.9903 243.749C61.4545 244.831 65.1598 242.307 68.2661 238.11Z" fill="#30242A"/>
<path d="M21.485 294.538C32.7491 292.835 41.6366 289.844 41.3358 287.856C41.035 285.869 31.6597 285.637 20.3956 287.34C9.1314 289.042 0.243875 292.033 0.54471 294.021C0.845545 296.009 10.2208 296.24 21.485 294.538Z" fill="#30242A"/>
<path d="M13.6156 265.176V265.206C15.2799 266.136 16.5352 267.656 17.1339 269.465C17.7327 271.274 17.6314 273.242 16.8501 274.98C16.0689 276.718 14.6643 278.101 12.9133 278.855C11.1623 279.61 9.19194 279.681 7.39072 279.056V279.082C16.8315 283.32 25.8886 283.644 27.613 279.805C29.3373 275.967 23.0607 269.415 13.6156 265.176Z" fill="#202E5B"/>
<path d="M41.5284 234.454C39.5195 233.932 36.9071 236.969 34.9974 241.669C32.6997 235.961 29.3674 232.14 27.1215 232.881C24.8755 233.622 24.4746 238.671 26.0308 244.624C21.6941 241.988 17.7885 241.1 16.4823 242.716C14.8183 244.775 18.0256 250.116 23.6469 254.653C25.2462 255.954 26.967 257.1 28.7855 258.073C29.0955 256.842 29.7081 255.709 30.5679 254.775C31.4276 253.842 32.5072 253.137 33.7085 252.726C34.9098 252.316 36.1948 252.211 37.4468 252.423C38.6988 252.634 39.878 253.155 40.8774 253.937C41.72 252.125 42.3925 250.239 42.8863 248.303C44.7012 241.32 44.0933 235.117 41.5284 234.454Z" fill="#202E5B"/>
<path d="M85.3526 266.163C84.7319 264.181 80.7702 263.578 75.7696 264.44C79.3994 259.473 80.8823 254.627 79.0674 253.115C77.2525 251.603 72.7477 253.933 68.5144 258.4C68.4627 253.326 67.1479 249.543 65.0873 249.289C62.462 248.966 59.6168 254.515 58.7374 261.674C58.4768 263.721 58.4133 265.788 58.5477 267.847C59.7572 267.458 61.0448 267.377 62.2936 267.611C63.5424 267.846 64.7127 268.389 65.698 269.191C66.6833 269.992 67.4524 271.028 67.9352 272.202C68.4181 273.377 68.5994 274.653 68.4627 275.916C70.4481 275.664 72.4063 275.232 74.3125 274.623C81.197 272.482 86.1415 268.687 85.3526 266.163Z" fill="#202E5B"/>
<path d="M65.7555 269.234C64.7696 268.412 63.5918 267.853 62.3316 267.608C61.0715 267.363 59.7698 267.441 58.5477 267.834C58.7934 271.241 59.6556 273.865 60.9532 274.817C62.1645 275.937 64.9666 276.312 68.4541 275.902C68.59 274.655 68.4147 273.393 67.9438 272.229C67.4729 271.066 66.7211 270.037 65.7555 269.234Z" fill="#30242A"/>
<path d="M33.7861 252.701C32.5672 253.103 31.4697 253.806 30.5954 254.745C29.7212 255.684 29.0986 256.829 28.7855 258.073C31.8031 259.667 34.4845 260.313 35.9933 259.727C37.584 259.296 39.3816 257.112 40.8775 253.937C39.8894 253.162 38.7247 252.644 37.4874 252.428C36.25 252.212 34.9784 252.306 33.7861 252.701Z" fill="#30242A"/>
<path d="M14.4562 277.966C13.6455 277.514 13.0342 276.775 12.7433 275.894C12.4524 275.013 12.503 274.056 12.8853 273.21C13.2675 272.365 13.9534 271.694 14.8072 271.33C15.661 270.967 16.6204 270.936 17.4953 271.246C17.3941 270 16.9872 268.797 16.3105 267.745C15.6338 266.694 14.7082 265.825 13.6156 265.215L7.37775 279.056C8.55672 279.467 9.81875 279.583 11.053 279.393C12.2872 279.203 13.4558 278.713 14.4562 277.966Z" fill="#F5EBDD"/>
<path d="M12.8698 273.215C12.4938 274.06 12.4481 275.015 12.7418 275.892C13.0354 276.769 13.647 277.504 14.4562 277.953C15.4923 277.183 16.3151 276.162 16.8468 274.986C17.3785 273.811 17.6017 272.519 17.4953 271.233C16.6163 270.92 15.6515 270.951 14.7939 271.318C13.9363 271.685 13.2491 272.363 12.8698 273.215Z" fill="#4856DF"/>
<path d="M238.099 273.818H238.876L239.068 273.066L257.424 201.333C259.869 191.778 265.429 183.308 273.225 177.258C281.021 171.209 290.611 167.925 300.482 167.925C324.527 167.925 342.119 190.572 336.156 213.847L336.156 213.847L324.814 258.169C323.277 264.174 319.784 269.497 314.885 273.299C309.986 277.101 303.96 279.166 297.757 279.167C297.757 279.167 297.757 279.167 297.757 279.167H189.403L190.752 273.818H238.099Z" fill="#202E5B" stroke="black" stroke-width="2"/>
<path d="M188.969 348.053V355.833H258.843V348.053H188.969Z" fill="#444443"/>
<path d="M270.353 383.949L252.179 275.846H195.629L177.454 383.949C177.368 384.464 177.396 384.99 177.534 385.493C177.673 385.995 177.919 386.462 178.257 386.859C178.594 387.257 179.014 387.577 179.487 387.796C179.961 388.015 180.476 388.128 180.998 388.128C181.817 388.127 182.612 387.846 183.25 387.333C183.889 386.819 184.332 386.102 184.507 385.302L208.311 275.846H239.513L263.309 385.302C263.484 386.102 263.927 386.819 264.565 387.333C265.203 387.848 265.999 388.128 266.818 388.128C267.339 388.127 267.854 388.013 268.326 387.793C268.798 387.573 269.217 387.254 269.554 386.856C269.89 386.459 270.136 385.993 270.274 385.491C270.412 384.989 270.439 384.463 270.353 383.949Z" fill="#444443"/>
<path d="M246.855 348.053V355.833H316.73V348.053H246.855Z" fill="#444443"/>
<path d="M328.24 383.949L310.048 275.846H253.519L235.345 383.949C235.259 384.464 235.286 384.99 235.425 385.493C235.564 385.995 235.81 386.462 236.147 386.859C236.485 387.257 236.904 387.577 237.378 387.796C237.851 388.015 238.367 388.128 238.888 388.128C239.708 388.128 240.502 387.847 241.14 387.333C241.777 386.819 242.22 386.102 242.393 385.302L266.189 275.846H297.395L321.191 385.302C321.366 386.103 321.809 386.821 322.449 387.335C323.088 387.849 323.884 388.129 324.705 388.128C325.226 388.127 325.74 388.013 326.212 387.793C326.685 387.573 327.104 387.254 327.44 386.856C327.776 386.459 328.022 385.993 328.16 385.491C328.298 384.989 328.325 384.463 328.24 383.949Z" fill="#444443"/>
<path d="M271.125 258.417L278.057 231.326H232.116C223.107 231.326 214.354 234.323 207.238 239.844C200.122 245.364 195.047 253.095 192.814 261.816L188.119 280.167H243.096C249.521 280.167 255.764 278.029 260.839 274.09C265.914 270.152 269.533 264.638 271.125 258.417Z" fill="#202E5B"/>
<path d="M191.107 272.099H249.433" stroke="black" stroke-width="4" stroke-linecap="round" stroke-linejoin="round"/>
<path d="M238.306 271.827L248.527 231.895" stroke="#A15842" stroke-width="4" stroke-linecap="round" stroke-linejoin="round"/>
<path d="M208.445 202.262C208.445 202.262 173.859 211.674 159.168 219.019C134.945 231.119 135.027 239.106 120.258 283.816C106.622 325.136 105.122 345.162 86.3139 345.955C71.9545 346.558 67.247 351.254 64.9191 357.689L121.741 384.63C122.392 384.938 123.136 384.986 123.822 384.763C124.507 384.54 125.081 384.064 125.426 383.433C125.778 382.787 125.864 382.029 125.665 381.321C125.466 380.613 124.999 380.01 124.362 379.642L123.168 378.952C128.448 372.56 138.635 358.939 148.791 338.249L155.258 341.264C155.258 341.264 165.703 327.699 167.358 312.312C169.514 292.44 168.22 279.047 177.303 271.272L283.221 202.244L208.445 202.262Z" fill="#202E5B"/>
<path d="M80.7314 349.147C81.8566 346.808 88.1073 332.558 91.7026 334.281C96.3799 336.521 84.2405 350.827 84.2405 350.827L80.7314 349.147Z" fill="#30242A"/>
<path d="M64.9148 357.892L121.736 384.828C122.394 385.142 123.148 385.189 123.84 384.959C124.531 384.729 125.107 384.241 125.446 383.596C125.785 382.951 125.861 382.201 125.658 381.501C125.455 380.801 124.989 380.208 124.357 379.844L123.163 379.155L123.284 379.009L84.2275 360.584C84.8127 358.964 85.2231 357.286 85.4518 355.579C91.2973 356.591 103.126 357.681 103.187 352.809C103.251 348.268 90.3317 350.091 85.6113 351.374C85.5095 349.629 85.1702 347.906 84.6026 346.252C71.5794 347.148 67.1479 351.715 64.9148 357.892Z" fill="#30242A"/>
<path d="M159.168 219.019C156.447 220.376 154.038 221.681 151.878 222.991L148.563 233.6L161.323 224.619L173.087 233.992L168.751 221.142L182.075 215.043L171.777 213.75C167.483 215.281 163.274 217.04 159.168 219.019Z" fill="white"/>
<path d="M196.763 213.496L195.9 219.109L201.522 216.951L196.763 213.496Z" fill="white"/>
<path d="M164.341 241.574L156.128 252.374L144.455 246.761L151.369 258.422L140.562 267.494L154.395 265.766L159.155 281.752L163.909 265.766L179.041 261.446L164.341 255.398V241.574Z" fill="white"/>
<path d="M118.171 324.033L119.18 321.155L132.975 320.423L121.766 312.798L126.758 300.853L115.468 308.374L113.313 306.048C111.589 311.721 110.063 316.774 108.571 321.216H108.64C108.804 320.729 108.968 320.238 109.131 319.738L118.171 324.033Z" fill="white"/>
<path d="M118.171 324.033L109.118 319.755C108.955 320.255 108.791 320.746 108.627 321.233C103.157 337.516 98.1732 345.658 86.3226 346.158C85.7406 346.158 85.1802 346.214 84.6284 346.252C85.196 347.906 85.5354 349.629 85.6372 351.374C90.3791 350.082 103.277 348.268 103.213 352.809C103.144 357.681 91.3232 356.591 85.4777 355.579C85.2448 357.286 84.8301 358.964 84.2404 360.584L123.297 379.008C128.608 372.547 138.708 358.995 148.787 338.477L118.171 324.033Z" fill="white"/>
<path d="M152.667 291.255L151.374 302.921L139.269 302.49L149.645 310.27L145.765 324.093L156.15 315.017L165.483 321.237C165.742 320.413 165.979 319.579 166.194 318.735L162.616 309.83L168.16 303.761C168.251 302.632 168.337 301.521 168.419 300.439L158.736 302.055L152.667 291.255Z" fill="white"/>
<path d="M125.702 267.007C124.612 270.376 123.439 274.033 122.146 278.009L133.647 278.711L125.702 267.007Z" fill="white"/>
<path d="M166.315 372.245C166.496 369.66 167.061 354.109 171.035 354.389C176.208 354.751 170.195 372.516 170.195 372.516L166.315 372.245Z" fill="#30242A"/>
<path d="M262.055 202.895C262.055 202.895 218.821 210.907 195.043 220.841C171.035 230.874 171.268 248.691 175.588 297.088C179.467 340.415 186.399 361.454 172.139 367.933C159.06 373.878 154.516 381.33 155.137 388.145H219.52C219.883 388.145 220.242 388.074 220.577 387.935C220.912 387.796 221.217 387.593 221.474 387.336C221.73 387.08 221.934 386.776 222.073 386.441C222.211 386.106 222.283 385.747 222.283 385.384C222.283 384.652 221.992 383.949 221.474 383.431C220.955 382.914 220.253 382.623 219.52 382.623H218.433C220.464 375.984 223.408 363.027 223.813 341.583H231.797C231.797 341.583 235.901 322.629 231.366 305.725C226.624 288.016 222.287 284.992 219.696 272.896H258.438C288.024 272.896 310.168 245.55 303.732 216.697C301.723 207.681 298.809 202.912 298.809 202.912L262.055 202.895Z" fill="#202E5B"/>
<path d="M235.25 228.181L227.314 238.158L214.954 233.915L222.279 245.895L212.769 258.857L225.305 253.67L232.293 266.542L233.086 252.374L245.191 249.785L234.819 243.301L235.25 228.181Z" fill="white"/>
<path d="M217.981 305.195L225.309 317.175L215.799 330.137L228.335 324.968L232.982 333.527C233.664 326.876 234 317.037 231.827 307.59L230.344 309.456L217.981 305.195Z" fill="white"/>
<path d="M185.658 341.566L185.102 334.889L199.138 329.478L185.852 326.725L187.317 312.152L178.696 323.426L178.437 323.318C179.265 330.275 179.989 336.353 180.394 341.613V341.566H185.658Z" fill="white"/>
<path d="M219.52 382.605H218.433C220.464 375.967 223.408 363.009 223.813 341.565H180.381V341.604C180.416 342.035 180.446 342.466 180.476 342.897C180.476 342.935 180.476 342.978 180.476 343.017C181.377 356.479 179.907 364.353 172.122 367.89C159.043 373.835 154.499 381.287 155.12 388.102H219.52C220.253 388.102 220.955 387.811 221.474 387.293C221.992 386.775 222.283 386.073 222.283 385.341C222.283 384.608 221.992 383.906 221.474 383.388C220.955 382.87 220.253 382.58 219.52 382.58V382.605Z" fill="white"/>
<path d="M277.164 204.01L257.304 205.768L259.374 213.746L246.669 220.518L262.495 222.633L267.849 234.483L273.354 222.211L289.45 219.669L275.47 212.475L277.164 204.01Z" fill="white"/>
<path d="M182.507 260.149L187.249 245.029L201.082 247.183L190.275 237.68L198.034 228.608L183.77 233.777L181.489 229.87C177.821 234.023 175.605 239.179 174.419 245.809L176.851 245.886L182.507 260.149Z" fill="white"/>
<path d="M219.52 212.716C216.601 213.526 213.696 214.375 210.859 215.249L222.287 223.003L219.52 212.716Z" fill="white"/>
<path d="M200.664 282.614L194.611 270.087L191.585 283.91L180.347 283.049L190.719 292.121L184.235 307.241L195.491 296.756L204.82 307.504L201.961 291.255L211.471 278.728L200.664 282.614Z" fill="white"/>
<path d="M175.001 377.552C180.718 375.976 191.874 371.918 189.857 367.485C187.977 363.35 177.071 370.501 173.35 373.684C172.411 371.962 171.212 370.396 169.794 369.04C158.508 374.783 154.546 381.735 155.137 388.128H219.52C220.252 388.128 220.955 387.837 221.474 387.319C221.992 386.801 222.283 386.099 222.283 385.367C222.283 384.634 221.992 383.932 221.474 383.414C220.955 382.896 220.252 382.605 219.52 382.605H176.023C175.861 380.89 175.519 379.196 175.001 377.552Z" fill="black"/>
<path d="M374.142 208.31H363.554V388.128H374.142V208.31Z" fill="#202E5B"/>
<path d="M374.142 210.782H363.554" stroke="#202E5B" stroke-width="4" stroke-miterlimit="10"/>
<path d="M220.55 73.0938C214.515 72.2323 200.69 78.7154 200.233 91.531C199.776 104.347 211.226 108.465 213.058 109.382L239.626 105.26L241.458 75.9671L220.55 73.0938Z" fill="#202E5B"/>
<path d="M267.487 41.2682C278.891 41.2682 288.136 32.03 288.136 20.6341C288.136 9.2382 278.891 0 267.487 0C256.083 0 246.838 9.2382 246.838 20.6341C246.838 32.03 256.083 41.2682 267.487 41.2682Z" fill="#202E5B"/>
<path d="M254.093 34.8238C255.352 35.4054 244.751 10.2697 239.341 14.1897C234.25 17.8901 247.7 31.8773 254.093 34.8238Z" fill="#30242A"/>
<path d="M254.679 36.3617C255.834 37.7402 282.881 28.2847 279.139 22.831C275.561 17.5842 253.524 34.9789 254.679 36.3617Z" fill="#30242A"/>
<path d="M290.584 105.492C290.584 105.492 308.742 90.3721 297.05 73.5246C289.61 62.7853 269.379 67.0629 269.379 67.0629C269.87 61.1656 271.474 44.1759 258.688 34.841C245.902 25.5061 229.68 30.4213 223.77 37.7875C217.86 45.1537 219.347 58.917 217.381 68.743C215.416 78.5689 216.726 85.2502 222.787 88.3949C228.301 91.2552 234.789 89.5278 234.789 89.5278L234.099 99.8966C234.099 99.8966 221.597 100.366 213.937 103.136C195.478 109.813 163.047 155.604 163.047 155.604C142.73 154.743 123.706 153.881 123.706 153.881L133.652 183.26C133.652 183.26 158.724 191.466 176.881 186.706C195.301 181.886 212.764 156.035 212.764 156.035L218.8 173.313L208.423 202.257H298.779L283.648 175.472C286.265 151.719 290.584 105.492 290.584 105.492Z" fill="white"/>
<path d="M237.354 141.895L237.65 143.161L238.279 142.022L261.813 99.3787C264.243 99.8229 266.764 99.9158 269.241 100.007C269.347 100.011 269.453 100.015 269.559 100.019C272.277 100.12 274.94 100.237 277.468 100.807L277.473 100.808C281.898 101.761 286.136 103.432 290.018 105.754L289.999 105.966L289.857 107.474C289.734 108.784 289.556 110.683 289.334 113.035C288.889 117.74 288.269 124.26 287.569 131.523C286.168 146.05 284.444 163.545 283.151 175.422L283.134 175.582L283.213 175.722L297.922 201.757H209.134L219.27 173.482L219.33 173.316L219.272 173.149L213.237 155.87L212.908 154.93L212.35 155.755L212.765 156.035C212.35 155.755 212.35 155.755 212.35 155.755L212.35 155.756L212.347 155.759L212.338 155.773L212.301 155.827C212.268 155.875 212.219 155.947 212.153 156.041C212.022 156.23 211.827 156.508 211.572 156.864C211.061 157.576 210.311 158.6 209.352 159.845C207.434 162.334 204.687 165.702 201.367 169.22C194.708 176.275 185.82 183.85 176.754 186.223L176.754 186.223C167.78 188.575 157.058 187.728 148.541 186.275C144.29 185.55 140.604 184.677 137.98 183.985C136.669 183.639 135.624 183.338 134.907 183.124C134.549 183.017 134.273 182.932 134.087 182.874C134.072 182.869 134.058 182.865 134.044 182.861L124.415 154.414L124.541 154.42C125.101 154.445 125.923 154.482 126.974 154.529C129.075 154.623 132.088 154.758 135.736 154.919C143.032 155.242 152.867 155.673 163.026 156.104L163.298 156.115L163.455 155.893L163.047 155.604C163.455 155.893 163.455 155.893 163.456 155.893L163.457 155.891L163.461 155.885L163.478 155.861L163.548 155.763C163.61 155.677 163.701 155.548 163.822 155.38C164.064 155.044 164.42 154.55 164.881 153.918C165.802 152.655 167.14 150.843 168.802 148.647C172.128 144.254 176.754 138.329 181.957 132.195C187.16 126.061 192.934 119.726 198.556 114.51C204.191 109.283 209.625 105.226 214.15 103.589C218.165 102.137 223.556 101.312 227.755 100.87L237.354 141.895Z" fill="white" stroke="black"/>
<path d="M138.764 199.238H213.635L196.612 145.511C196.111 143.928 195.119 142.545 193.779 141.564C192.438 140.582 190.82 140.053 189.158 140.053H125.883C124.654 140.053 123.442 140.342 122.345 140.897C121.248 141.453 120.298 142.259 119.572 143.25C118.846 144.242 118.364 145.39 118.165 146.603C117.967 147.815 118.058 149.057 118.43 150.228L132.501 194.658C132.923 195.988 133.757 197.148 134.883 197.971C136.01 198.794 137.369 199.238 138.764 199.238Z" fill="#202E5B"/>
<path d="M149.921 164.358C151.908 161.644 160.922 168.812 161.586 169.402C161.931 168.812 166.625 161.648 170.065 164.358C173.053 166.71 166.487 177.216 164.742 179.896C164.668 179.977 164.579 180.042 164.479 180.086C164.379 180.131 164.271 180.154 164.162 180.154C164.052 180.154 163.944 180.131 163.844 180.086C163.744 180.042 163.655 179.977 163.582 179.896C160.396 177.216 148.196 166.71 149.921 164.358Z" fill="white"/>
<path d="M160.843 166.175C161.596 165.94 161.624 163.885 160.907 161.584C160.19 159.283 158.998 157.608 158.246 157.842C157.494 158.076 157.465 160.131 158.182 162.432C158.899 164.733 160.091 166.409 160.843 166.175Z" fill="white"/>
<path d="M257.11 193.189C257.327 193.884 257.377 194.621 257.257 195.339C257.137 196.057 256.85 196.737 256.419 197.323C255.988 197.91 255.425 198.387 254.775 198.717C254.125 199.046 253.407 199.219 252.679 199.22H138.764C137.369 199.221 136.01 198.777 134.883 197.954C133.757 197.13 132.923 195.97 132.501 194.641L132.035 193.172L257.11 193.189Z" fill="#202E5B"/>
<path d="M392.385 199.238H58.6339V210.037H392.385V199.238Z" fill="#202E5B"/>
<path d="M249.566 279.167L253.945 262.064L253.945 262.064C256.122 253.558 261.071 246.019 268.011 240.634C274.951 235.25 283.488 232.326 292.274 232.326H331.422L324.809 258.169C323.272 264.175 319.777 269.499 314.877 273.301C309.976 277.103 303.949 279.167 297.745 279.167C297.745 279.167 297.744 279.167 297.744 279.167H249.566Z" fill="#202E5B" stroke="black" stroke-width="2"/>
<path d="M120.102 155.436C115.072 157.948 112.558 162.135 112.558 165.069C112.558 169.35 116.921 170.156 116.921 170.156C116.921 170.156 113.666 175.269 119.327 177.669C119.327 177.669 119.327 182.933 124.599 182.933C124.599 182.933 123.9 187.038 129.401 187.426C134.902 187.813 140.562 184.944 141.04 183.088C141.588 180.895 140.109 179.06 136.117 178.479C136.117 178.479 141.506 175.963 140.652 172.788C139.799 169.613 136.156 169.686 136.156 169.686C136.156 169.686 139.644 167.597 137.781 164.517C135.919 161.437 132.358 162.505 132.358 162.505C132.358 162.505 133.289 160.352 131.66 158.71C129.72 156.772 121.379 159.219 121.379 159.219L120.102 155.436Z" fill="white"/>
<path d="M297.072 73.5246C289.632 62.7854 269.401 67.0629 269.401 67.0629C269.892 61.1656 271.496 44.1759 258.71 34.841C245.924 25.5061 229.702 30.4213 223.792 37.7875C221.386 40.8029 220.209 44.8608 219.524 49.2892C223.447 49.9483 229.202 48.5999 229.202 48.5999C237.069 57.4438 244.117 58.8481 244.117 58.8481C249.622 53.3471 259.279 53.528 260.848 61.8635C262.477 70.5178 248.644 74.4077 248.644 74.4077C248.644 74.4077 247.351 89.9586 254.248 95.5759C256.365 97.2526 258.868 98.3736 261.529 98.8369C266.702 99.8664 272.397 99.1729 277.596 100.327C282.177 101.314 286.56 103.062 290.563 105.497C292.142 104.106 293.586 102.568 294.873 100.905C299.409 95.1581 304.832 84.7247 297.072 73.5246Z" fill="#202E5B"/>
<path d="M237.41 45.4467C234.823 47.6005 231.806 48.8929 228.331 49.7544" stroke="#0E0E0E" stroke-width="2" stroke-miterlimit="10" stroke-linecap="round"/>
<path d="M234.646 90.4971C236.654 89.8279 238.59 88.9622 240.427 87.9125" stroke="black" stroke-width="2" stroke-miterlimit="10" stroke-linecap="round"/>
<path d="M249.174 65.719L253.106 63.2635" stroke="black" stroke-width="2" stroke-miterlimit="10" stroke-linecap="round"/>
<path d="M226.615 77.2508C227.43 77.7548 230.495 78.1468 231.711 75.8077" stroke="black" stroke-width="2" stroke-miterlimit="10" stroke-linecap="round"/>
<path d="M234.625 66.1971C235.439 66.1971 236.099 65.5375 236.099 64.7239C236.099 63.9102 235.439 63.2506 234.625 63.2506C233.811 63.2506 233.151 63.9102 233.151 64.7239C233.151 65.5375 233.811 66.1971 234.625 66.1971Z" fill="#30242A"/>
<path d="M222.404 64.2457C223.218 64.2457 223.878 63.5861 223.878 62.7725C223.878 61.9588 223.218 61.2992 222.404 61.2992C221.589 61.2992 220.929 61.9588 220.929 62.7725C220.929 63.5861 221.589 64.2457 222.404 64.2457Z" fill="#30242A"/>
<path d="M226.555 68.463C226.262 69.3892 226.008 70.3972 226.176 70.7332C226.407 71.159 226.757 71.5079 227.184 71.7369" stroke="black" stroke-width="2" stroke-miterlimit="10" stroke-linecap="round"/>
<path d="M251.023 80.1542C253.876 80.1542 256.188 77.8437 256.188 74.9936C256.188 72.1434 253.876 69.8329 251.023 69.8329C248.171 69.8329 245.859 72.1434 245.859 74.9936C245.859 77.8437 248.171 80.1542 251.023 80.1542Z" fill="#F5EBDD"/>
<path d="M226.179 63.6008C227.073 59.0119 224.446 54.6403 220.311 53.8365C216.177 53.0328 212.102 56.1012 211.208 60.6901C210.315 65.279 212.942 69.6506 217.076 70.4544C221.21 71.2581 225.286 68.1897 226.179 63.6008Z" stroke="#30242A" stroke-width="4" stroke-miterlimit="10" stroke-linecap="round"/>
<path d="M244.91 65.8959C245.803 61.307 243.176 56.9354 239.042 56.1316C234.908 55.3278 230.832 58.3963 229.939 62.9852C229.045 67.5741 231.672 71.9456 235.807 72.7494C239.941 73.5532 244.016 70.4847 244.91 65.8959Z" stroke="#30242A" stroke-width="4" stroke-miterlimit="10" stroke-linecap="round"/>
<path d="M226.533 62.906L229.512 63.2248" stroke="#30242A" stroke-width="4" stroke-miterlimit="10" stroke-linecap="round"/>
<path d="M270.388 67.6316L269.53 73.1455" stroke="#30242A" stroke-width="4" stroke-miterlimit="10" stroke-linecap="round"/>
<path d="M238.707 141.35L242.165 158.198V173.749" stroke="#30242A" stroke-width="2" stroke-linecap="round" stroke-linejoin="round"/>
<path d="M215.713 102.744L222.279 117.589L214.497 116.727L242.165 158.198" stroke="#30242A" stroke-width="2" stroke-linecap="round" stroke-linejoin="round"/>
<path d="M279.682 100.978L268.538 116.727L278.915 115.861L240.867 149.556" stroke="#30242A" stroke-width="2" stroke-linecap="round" stroke-linejoin="round"/>
<path d="M170.57 89.2435C175.253 89.2435 179.049 85.4499 179.049 80.7702C179.049 76.0905 175.253 72.2969 170.57 72.2969C165.887 72.2969 162.09 76.0905 162.09 80.7702C162.09 85.4499 165.887 89.2435 170.57 89.2435Z" fill="#202E5B"/>
<path d="M145.227 47.0492L140.29 41.1007C139.53 40.185 138.171 40.0583 137.255 40.8177L137.149 40.9057C136.233 41.6651 136.106 43.0229 136.866 43.9386L141.803 49.8871C142.563 50.8028 143.922 50.9295 144.838 50.1701L144.944 50.0821C145.86 49.3227 145.987 47.9649 145.227 47.0492Z" fill="#202E5B"/>
<path d="M154.107 54.2776L149.14 48.2898L59.8754 122.254C59.097 122.899 58.607 123.827 58.5132 124.834C58.4194 125.841 58.7296 126.843 59.3754 127.621L59.4745 127.742C59.794 128.127 60.1863 128.445 60.629 128.679C61.0717 128.912 61.556 129.056 62.0544 129.103C62.5528 129.149 63.0555 129.097 63.5337 128.949C64.0119 128.801 64.4563 128.561 64.8415 128.242L92.7501 105.109V186.28H100.54V98.6473L154.107 54.2776Z" fill="#45C0B5"/>
<path d="M139.721 56.0006L142.209 59.016C143.075 60.0622 143.733 61.264 144.148 62.557" stroke="#202E5B" stroke-width="4" stroke-miterlimit="10"/>
<path d="M96.6428 106.905C102.254 106.905 106.804 102.36 106.804 96.752C106.804 91.1444 102.254 86.5986 96.6428 86.5986C91.0312 86.5986 86.4821 91.1444 86.4821 96.752C86.4821 102.36 91.0312 106.905 96.6428 106.905Z" fill="#202E5B"/>
<path d="M96.6428 100.655C98.7998 100.655 100.548 98.9074 100.548 96.7519C100.548 94.5965 98.7998 92.8491 96.6428 92.8491C94.4858 92.8491 92.7372 94.5965 92.7372 96.7519C92.7372 98.9074 94.4858 100.655 96.6428 100.655Z" fill="#3EC1F3"/>
<path d="M177.532 75.9585L164.535 86.6934" stroke="#254A98" stroke-width="4" stroke-miterlimit="10"/>
<path d="M160.694 53.1921C157.961 52.8712 155.456 51.5105 153.701 49.3926L150.253 45.227C149.034 43.7606 147.282 42.8376 145.383 42.6607C143.483 42.4838 141.591 43.0675 140.122 44.2836C139.395 44.886 138.794 45.6256 138.353 46.4602C137.912 47.2948 137.64 48.208 137.553 49.1477C137.465 50.0873 137.563 51.035 137.842 51.9367C138.121 52.8383 138.575 53.6762 139.178 54.4025L142.627 58.581C144.374 60.6928 145.243 63.3946 145.054 66.1282L144.192 78.7241C143.764 84.8871 145.33 91.0242 148.658 96.2307L149.761 97.9538L191.115 63.6771L189.632 62.2857C185.131 58.054 179.389 55.3795 173.251 54.6567L160.694 53.1921Z" fill="#45C0B5"/>
<path d="M100.54 186.28H92.7501L81.2358 189.416C79.0799 190.004 77.1772 191.284 75.821 193.058C74.4648 194.833 73.7302 197.004 73.7306 199.237H119.555C119.555 197.004 118.82 194.832 117.463 193.057C116.106 191.282 114.202 190.003 112.046 189.416L100.54 186.28Z" fill="#3EC1F3"/>
<path d="M183.27 57.5817L145.424 88.8387" stroke="#202E5B" stroke-width="4" stroke-miterlimit="10" stroke-linecap="round"/>
<path d="M92.5604 185.388H100.54" stroke="#202E5B" stroke-width="4" stroke-miterlimit="10" stroke-linecap="round"/>
<path d="M75.2437 193.853H117.783" stroke="#202E5B" stroke-width="4" stroke-miterlimit="10" stroke-linecap="round"/>
<path d="M320.42 310.369C321.282 303.046 320.851 286.607 311.341 274.08C301.831 261.553 314.79 266.757 318.67 270.203C324.877 275.717 330.343 281.003 335.098 298.716L320.42 310.369Z" fill="#30242A"/>
<path d="M435.248 388.128H486V386.469C485.999 384.132 485.069 381.89 483.414 380.237C481.759 378.584 479.515 377.656 477.176 377.656H434.985L435.248 388.128Z" fill="white"/>
<path d="M311.444 339.709L322.148 388.128H342.039V385.113C342.039 383.168 341.267 381.304 339.894 379.927C338.52 378.55 336.656 377.774 334.71 377.768C334.71 377.768 344.651 370.32 350.704 362.975C350.704 362.975 361.08 375.61 375.78 373.447L376.845 378.617C377.398 381.3 378.86 383.71 380.984 385.442C383.108 387.175 385.764 388.123 388.505 388.128H436.714C458.096 388.128 468.614 384.867 469.218 372.702C469.236 372.238 469.161 371.775 468.996 371.341C468.831 370.907 468.58 370.51 468.258 370.176C467.936 369.841 467.549 369.575 467.121 369.393C466.694 369.211 466.234 369.118 465.769 369.118H452.311C451.756 369.119 451.208 368.995 450.707 368.755C450.206 368.516 449.766 368.167 449.418 367.735L443.689 360.632C441.991 358.53 439.724 356.959 437.159 356.106C434.594 355.253 431.837 355.154 429.217 355.82L417.694 358.762C417.694 358.762 397.278 329.444 378.784 309.081C361.11 289.64 327.865 287.542 314.768 312.863C310.558 321.15 309.382 330.647 311.444 339.709Z" fill="#FFF6F3"/>
<path d="M431.959 388.128V386.469C431.959 385.312 431.731 384.165 431.287 383.096C430.844 382.026 430.194 381.054 429.374 380.236C428.555 379.417 427.582 378.768 426.511 378.325C425.441 377.883 424.293 377.655 423.135 377.656H417.259" stroke="#30242A" stroke-width="2" stroke-miterlimit="10"/>
<path d="M351.505 363.32C354.523 359.731 364.822 346.519 364.084 333.596C363.296 319.768 355.006 312.428 355.006 312.428" stroke="#30242A" stroke-width="2" stroke-miterlimit="10" stroke-linecap="round"/>
<path d="M373.163 355.191C373.163 355.191 373.715 365.413 374.823 373.047" stroke="#30242A" stroke-width="2" stroke-miterlimit="10" stroke-linecap="round"/>
<path d="M331.663 383.704V387.697" stroke="#30242A" stroke-width="4" stroke-miterlimit="10" stroke-linecap="round"/>
<path d="M336.417 383.704V387.697" stroke="#30242A" stroke-width="4" stroke-miterlimit="10" stroke-linecap="round"/>
<path d="M422.449 383.704V387.697" stroke="#30242A" stroke-width="2" stroke-miterlimit="10" stroke-linecap="round"/>
<path d="M427.204 383.704V387.697" stroke="#30242A" stroke-width="2" stroke-miterlimit="10" stroke-linecap="round"/>
<path d="M439.956 372.038C441.029 372.038 441.9 371.169 441.9 370.096C441.9 369.023 441.029 368.153 439.956 368.153C438.882 368.153 438.011 369.023 438.011 370.096C438.011 371.169 438.882 372.038 439.956 372.038Z" fill="#30242A"/>
<path d="M429.347 355.781V355.729L417.677 358.745L429.2 355.802L429.347 355.781Z" fill="#30242A"/>
<path d="M400.628 377.85C397.248 379.573 392.471 382.946 392.868 388.055H411.638L415.582 381.839C416.227 380.822 417.118 379.985 418.173 379.404C419.228 378.823 420.413 378.518 421.617 378.517H422.872L429.303 355.91L429.209 355.811L417.686 358.753L406.654 372.874C405.03 374.95 402.974 376.648 400.628 377.85Z" fill="#30242A"/>
<path d="M373.215 319.635C373.215 319.635 367.994 337.693 384.854 344.512C393.403 347.958 400.503 345.343 405.43 341.927C397.985 332.02 388.135 319.407 378.78 309.102C376.435 306.524 373.799 304.224 370.926 302.249C368.374 305.721 365.58 314.31 373.215 319.635Z" fill="#1B294C"/>
<path d="M330.149 332.73C334.09 332.73 337.284 329.538 337.284 325.601C337.284 321.664 334.09 318.472 330.149 318.472C326.209 318.472 323.015 321.664 323.015 325.601C323.015 329.538 326.209 332.73 330.149 332.73Z" fill="#1B294C"/>
<path d="M465.786 369.118H463.2C463.057 369.839 463.076 370.582 463.255 371.294C463.434 372.007 463.768 372.671 464.234 373.239C464.7 373.808 465.286 374.266 465.951 374.581C466.615 374.896 467.34 375.061 468.075 375.063C468.379 375.062 468.682 375.034 468.981 374.976C469.112 374.224 469.197 373.465 469.235 372.702C469.254 372.238 469.178 371.775 469.013 371.341C468.848 370.907 468.597 370.51 468.275 370.176C467.953 369.841 467.566 369.575 467.139 369.393C466.711 369.211 466.251 369.118 465.786 369.118Z" fill="#30242A"/>
<path d="M476.055 383.704V387.598" stroke="#30242A" stroke-width="2" stroke-miterlimit="10" stroke-linecap="round"/>
<path d="M480.81 383.704V387.598" stroke="#30242A" stroke-width="2" stroke-miterlimit="10" stroke-linecap="round"/>
<path d="M449.965 387.611C460.536 386.547 466.838 383.687 469.127 377.6" stroke="#30242A" stroke-width="2" stroke-linecap="round" stroke-linejoin="round"/>
<path d="M276.629 186.668C275.41 186.062 274.396 185.538 273.631 185.135C273.107 184.858 272.7 184.639 272.425 184.49C272.288 184.415 272.183 184.357 272.113 184.319L272.035 184.275L272.016 184.265L272.011 184.262L272.01 184.262L272.01 184.262L272.01 184.262L276.629 186.668ZM276.629 186.668L276.618 161.886C271.653 161.487 266.665 161.454 261.694 161.788C257.929 162.097 253.504 162.745 249.513 163.563C245.493 164.387 242.008 165.364 240.069 166.301C239.689 166.484 239.216 166.708 238.673 166.965C236.226 168.123 232.361 169.952 229.186 171.812C227.227 172.96 225.641 174.058 224.805 174.961C224.396 175.403 224.297 175.663 224.281 175.751C224.303 175.776 224.359 175.829 224.484 175.898L224.484 175.898C225.244 176.32 226.286 176.512 227.513 176.512C228.726 176.511 230.033 176.322 231.253 176.06C232.469 175.799 233.573 175.472 234.373 175.209C234.773 175.078 235.095 174.964 235.316 174.883C235.426 174.843 235.511 174.811 235.567 174.789L235.63 174.765L235.644 174.759L235.647 174.758L235.648 174.758L235.648 174.758C235.648 174.758 235.648 174.758 235.648 174.759L236.694 176.424L236.017 175.687L236.694 176.424L236.694 176.424L236.693 176.425L236.689 176.428L236.672 176.444L236.605 176.505C236.546 176.56 236.46 176.64 236.348 176.744C236.126 176.952 235.806 177.253 235.417 177.625C234.639 178.368 233.589 179.39 232.497 180.507C231.403 181.626 230.276 182.832 229.341 183.944C228.385 185.08 227.698 186.039 227.412 186.68C227.173 187.213 227.204 187.629 227.344 187.986C227.498 188.378 227.811 188.762 228.231 189.117C228.645 189.467 229.109 189.745 229.48 189.937C229.663 190.032 229.818 190.103 229.924 190.15C229.977 190.173 230.018 190.19 230.044 190.201L230.071 190.212L230.074 190.213L230.075 190.213L230.075 190.213L230.076 190.213L230.076 190.213L230.575 190.403L230.694 190.925C230.957 192.078 231.421 192.718 231.89 193.086C232.368 193.462 232.949 193.632 233.565 193.67C234.185 193.708 234.795 193.61 235.265 193.493C235.496 193.436 235.685 193.376 235.812 193.332C235.876 193.31 235.924 193.292 235.954 193.28C235.969 193.275 235.979 193.27 235.985 193.268L235.987 193.267L235.988 193.267L235.988 193.267L235.989 193.266L235.99 193.266L236.871 192.895L237.28 193.763C237.591 194.424 238.038 194.782 238.605 194.962C239.214 195.156 240.029 195.164 241.048 194.954C243.094 194.534 245.611 193.318 248.117 191.814C250.602 190.322 252.991 188.601 254.764 187.247C255.649 186.572 256.378 185.99 256.884 185.578C257.137 185.372 257.335 185.209 257.468 185.097C257.535 185.042 257.586 184.999 257.619 184.97L257.657 184.938L257.666 184.931L257.668 184.929L257.669 184.929L257.669 184.929L276.629 186.668Z" fill="white" stroke="black" stroke-width="2"/>
<path d="M323.444 196.607L323.443 196.607C320.59 197.965 317.038 198.444 313.078 198.271C309.126 198.099 304.832 197.281 300.543 196.108C292.254 193.842 284.088 190.28 278.617 187.647V162.054C283.107 162.443 287.954 163.062 293.009 163.935L295.433 164.353L293.989 162.362L281.726 145.46L291.172 107.279C300.208 114.988 316.066 132.961 325.972 151.171C331.159 160.707 334.647 170.187 334.757 178.226C334.812 182.229 334.029 185.839 332.235 188.925C330.445 192.005 327.609 194.63 323.444 196.607Z" fill="white" stroke="black" stroke-width="2"/>
<path d="M234.362 176.139C237.431 173.602 242.527 169.501 246.329 167.029" stroke="black" stroke-width="2" stroke-miterlimit="10" stroke-linecap="round"/>
<path d="M250.519 173.089C241.686 178.806 233.638 186.444 229.654 190.441" stroke="black" stroke-width="2" stroke-miterlimit="10" stroke-linecap="round"/>
<path d="M254.438 179.555C248.402 183.695 241.397 189.972 236.823 194.279" stroke="black" stroke-width="2" stroke-miterlimit="10" stroke-linecap="round"/>
<path d="M358.2 177.234C358.854 177.235 359.48 177.495 359.942 177.956C360.405 178.418 360.665 179.044 360.666 179.698V180.064C360.665 180.717 360.405 181.343 359.942 181.805C359.48 182.267 358.854 182.527 358.2 182.528H345.496V177.234H358.2ZM358.2 173.787H342.513C342.451 173.787 342.39 173.8 342.334 173.823C342.277 173.847 342.225 173.881 342.182 173.925C342.139 173.969 342.105 174.021 342.081 174.078C342.058 174.134 342.047 174.195 342.047 174.257V185.522C342.047 185.645 342.096 185.763 342.184 185.851C342.271 185.938 342.389 185.987 342.513 185.987H358.2C358.978 185.987 359.748 185.834 360.466 185.536C361.185 185.238 361.837 184.801 362.387 184.251C362.936 183.701 363.372 183.048 363.668 182.329C363.965 181.611 364.116 180.841 364.115 180.064V179.685C364.115 178.117 363.491 176.614 362.382 175.505C361.273 174.397 359.769 173.774 358.2 173.774V173.787Z" fill="#3EC1F3"/>
<path d="M339.232 171.931C326.386 171.931 320.45 161.7 320.45 161.7L329.072 199.238H349.367L357.989 161.7C355.987 164.854 353.215 167.448 349.934 169.238C346.653 171.027 342.97 171.954 339.232 171.931Z" fill="#3EC1F3"/>
<path d="M339.232 171.931C342.975 171.958 346.662 171.034 349.948 169.244C353.234 167.454 356.01 164.858 358.015 161.7H320.45C320.45 161.7 326.386 171.931 339.232 171.931Z" fill="#30242A"/>
</svg>
